{"glyphs":{"0":{"ha":803,"x_min":99,"x_max":704,"o":"m 99 200 l 99 758 q 299 958 99 958 l 504 958 q 704 758 704 958 l 704 200 q 504 0 704 0 l 299 0 q 99 200 99 0 m 165 186 q 292 61 165 61 l 511 61 q 638 186 638 61 l 638 772 q 511 897 638 897 l 292 897 q 165 772 165 897 l 165 186 z "},"1":{"ha":803,"x_min":138,"x_max":688,"o":"m 138 0 l 138 61 l 390 61 l 390 897 l 194 897 l 194 924 l 239 958 l 457 958 l 457 61 l 688 61 l 688 0 l 138 0 z "},"2":{"ha":803,"x_min":99,"x_max":704,"o":"m 99 0 l 99 279 q 243 474 99 444 l 544 535 q 638 656 638 553 l 638 772 q 511 897 638 897 l 126 897 l 126 924 l 171 958 l 504 958 q 704 758 704 958 l 704 668 q 560 474 704 503 l 258 413 q 165 292 165 394 l 165 61 l 704 61 l 704 0 l 99 0 z "},"3":{"ha":803,"x_min":113,"x_max":704,"o":"m 113 35 l 113 61 l 511 61 q 638 186 638 61 l 638 353 q 511 478 638 478 l 215 478 l 215 539 l 511 539 q 638 665 638 539 l 638 772 q 511 897 638 897 l 126 897 l 126 924 l 171 958 l 504 958 q 704 758 704 958 l 704 650 q 669 560 704 594 l 621 511 l 669 463 q 704 372 704 428 l 704 200 q 504 0 704 0 l 157 0 l 113 35 z "},"4":{"ha":803,"x_min":99,"x_max":704,"o":"m 99 201 l 99 258 l 436 958 l 490 958 l 500 939 l 174 263 l 638 263 l 638 597 l 704 597 l 704 0 l 638 0 l 638 201 l 99 201 z "},"5":{"ha":803,"x_min":85,"x_max":704,"o":"m 85 35 l 85 61 l 511 61 q 638 186 638 61 l 638 367 q 511 492 638 492 l 99 492 l 99 958 l 663 958 l 663 897 l 165 897 l 165 553 l 504 553 q 704 353 704 553 l 704 200 q 504 0 704 0 l 129 0 l 85 35 z "},"6":{"ha":803,"x_min":99,"x_max":704,"o":"m 99 200 l 99 718 q 339 958 99 958 l 604 958 l 649 924 l 649 897 l 333 897 q 165 729 165 897 l 165 553 l 504 553 q 704 353 704 553 l 704 200 q 504 0 704 0 l 299 0 q 99 200 99 0 m 165 186 q 292 61 165 61 l 511 61 q 638 186 638 61 l 638 367 q 511 492 638 492 l 165 492 l 165 186 z "},"7":{"ha":803,"x_min":99,"x_max":704,"o":"m 99 897 l 99 958 l 704 958 l 704 749 l 311 0 l 253 0 l 242 19 l 638 765 l 638 897 l 99 897 z "},"8":{"ha":803,"x_min":99,"x_max":704,"o":"m 99 200 l 99 372 q 133 463 99 428 l 182 511 l 133 560 q 99 650 99 594 l 99 758 q 299 958 99 958 l 504 958 q 704 758 704 958 l 704 650 q 669 560 704 594 l 621 511 l 669 463 q 704 372 704 428 l 704 200 q 504 0 704 0 l 299 0 q 99 200 99 0 m 165 186 q 292 61 165 61 l 511 61 q 638 186 638 61 l 638 353 q 511 478 638 478 l 292 478 q 165 353 165 478 l 165 186 m 165 665 q 292 539 165 539 l 511 539 q 638 665 638 539 l 638 772 q 511 897 638 897 l 292 897 q 165 772 165 897 l 165 665 z "},"9":{"ha":803,"x_min":99,"x_max":704,"o":"m 99 606 l 99 758 q 299 958 99 958 l 504 958 q 704 758 704 958 l 704 240 q 464 0 704 0 l 185 0 l 140 35 l 140 61 l 469 61 q 638 229 638 61 l 638 406 l 299 406 q 99 606 99 406 m 165 593 q 292 467 165 467 l 638 467 l 638 772 q 511 897 638 897 l 292 897 q 165 772 165 897 l 165 593 z "},"A":{"ha":844,"x_min":29,"x_max":815,"o":"m 29 18 l 361 958 l 485 958 l 815 18 l 804 0 l 750 0 l 658 269 l 186 269 l 94 0 l 42 0 l 29 18 m 210 331 l 636 331 l 443 897 l 403 897 l 210 331 z "},"B":{"ha":888,"x_min":132,"x_max":792,"o":"m 132 0 l 132 958 l 564 958 q 764 758 764 958 l 764 656 q 736 575 764 608 l 688 517 l 746 468 q 792 357 792 431 l 792 200 q 592 0 792 0 l 132 0 m 199 61 l 600 61 q 725 186 725 61 l 725 353 q 600 478 725 478 l 199 478 l 199 61 m 199 539 l 572 539 q 697 665 697 539 l 697 772 q 572 897 697 897 l 199 897 l 199 539 z "},"C":{"ha":836,"x_min":118,"x_max":767,"o":"m 118 200 l 118 758 q 318 958 118 958 l 722 958 l 767 924 l 767 897 l 311 897 q 185 772 185 897 l 185 186 q 311 61 185 61 l 767 61 l 767 35 l 722 0 l 318 0 q 118 200 118 0 z "},"D":{"ha":938,"x_min":132,"x_max":833,"o":"m 132 0 l 132 958 l 514 958 q 833 638 833 958 l 833 321 q 514 0 833 0 l 132 0 m 199 61 l 518 61 q 767 310 767 61 l 767 649 q 518 897 767 897 l 199 897 l 199 61 z "},"E":{"ha":808,"x_min":132,"x_max":739,"o":"m 132 0 l 132 958 l 739 958 l 739 897 l 199 897 l 199 539 l 697 539 l 697 478 l 199 478 l 199 61 l 739 61 l 739 0 l 132 0 z "},"F":{"ha":781,"x_min":132,"x_max":739,"o":"m 132 0 l 132 958 l 739 958 l 739 897 l 199 897 l 199 497 l 697 497 l 697 436 l 199 436 l 199 0 l 132 0 z "},"G":{"ha":924,"x_min":118,"x_max":819,"o":"m 118 200 l 118 758 q 318 958 118 958 l 749 958 l 792 924 l 792 897 l 311 897 q 185 772 185 897 l 185 186 q 311 61 185 61 l 753 61 l 753 478 l 486 478 l 486 539 l 819 539 l 819 0 l 318 0 q 118 200 118 0 z "},"H":{"ha":965,"x_min":132,"x_max":833,"o":"m 132 0 l 132 958 l 199 958 l 199 539 l 767 539 l 767 958 l 833 958 l 833 0 l 767 0 l 767 478 l 199 478 l 199 0 l 132 0 z "},"I":{"ha":331,"x_min":132,"x_max":199,"o":"m 132 0 l 132 958 l 199 958 l 199 0 l 132 0 z "},"J":{"ha":832,"x_min":90,"x_max":708,"o":"m 90 200 l 90 328 l 157 328 l 157 186 q 283 61 157 61 l 517 61 q 642 186 642 61 l 642 897 l 297 897 l 297 958 l 708 958 l 708 200 q 508 0 708 0 l 290 0 q 90 200 90 0 z "},"K":{"ha":840,"x_min":132,"x_max":797,"o":"m 132 0 l 132 958 l 199 958 l 199 399 l 700 958 l 758 958 l 767 940 l 428 564 l 797 18 l 789 0 l 728 0 l 383 515 l 199 310 l 199 0 l 132 0 z "},"L":{"ha":731,"x_min":132,"x_max":697,"o":"m 132 0 l 132 958 l 199 958 l 199 61 l 697 61 l 697 0 l 132 0 z "},"M":{"ha":1171,"x_min":132,"x_max":1039,"o":"m 132 0 l 132 958 l 235 958 l 586 214 l 936 958 l 1039 958 l 1039 0 l 972 0 l 972 890 l 624 147 l 547 147 l 199 890 l 199 0 l 132 0 z "},"N":{"ha":985,"x_min":132,"x_max":853,"o":"m 132 0 l 132 958 l 208 958 l 786 92 l 786 958 l 853 958 l 853 0 l 776 0 l 199 867 l 199 0 l 132 0 z "},"O":{"ha":965,"x_min":118,"x_max":847,"o":"m 118 200 l 118 758 q 318 958 118 958 l 647 958 q 847 758 847 958 l 847 200 q 647 0 847 0 l 318 0 q 118 200 118 0 m 185 186 q 311 61 185 61 l 656 61 q 781 186 781 61 l 781 772 q 656 897 781 897 l 311 897 q 185 772 185 897 l 185 186 z "},"P":{"ha":868,"x_min":132,"x_max":778,"o":"m 132 0 l 132 958 l 578 958 q 778 758 778 958 l 778 581 q 578 381 778 381 l 199 381 l 199 0 l 132 0 m 199 442 l 586 442 q 711 568 711 442 l 711 772 q 586 897 711 897 l 199 897 l 199 442 z "},"Q":{"ha":965,"x_min":118,"x_max":847,"o":"m 118 200 l 118 758 q 318 958 118 958 l 647 958 q 847 758 847 958 l 847 199 q 651 0 847 3 l 747 -189 l 738 -208 l 683 -208 l 578 0 l 318 0 q 118 200 118 0 m 185 186 q 311 61 185 61 l 656 61 q 781 186 781 61 l 781 772 q 656 897 781 897 l 311 897 q 185 772 185 897 l 185 186 z "},"R":{"ha":882,"x_min":132,"x_max":806,"o":"m 132 0 l 132 958 l 578 958 q 778 758 778 958 l 778 608 q 608 410 778 424 l 806 19 l 796 0 l 742 0 l 535 408 l 199 408 l 199 0 l 132 0 m 199 469 l 586 469 q 711 596 711 469 l 711 772 q 586 897 711 897 l 199 897 l 199 469 z "},"S":{"ha":799,"x_min":90,"x_max":708,"o":"m 90 35 l 90 61 l 517 61 q 642 186 642 61 l 642 307 q 550 428 642 410 l 235 492 q 90 686 90 521 l 90 758 q 290 958 90 958 l 638 958 l 681 924 l 681 897 l 283 897 q 157 772 157 897 l 157 675 q 249 553 157 571 l 564 490 q 708 296 708 461 l 708 200 q 508 0 708 0 l 135 0 l 90 35 z "},"T":{"ha":806,"x_min":33,"x_max":772,"o":"m 33 897 l 33 958 l 772 958 l 772 897 l 436 897 l 436 0 l 369 0 l 369 897 l 33 897 z "},"U":{"ha":949,"x_min":124,"x_max":825,"o":"m 124 200 l 124 958 l 190 958 l 190 186 q 317 61 190 61 l 633 61 q 758 186 758 61 l 758 958 l 825 958 l 825 200 q 625 0 825 0 l 324 0 q 124 200 124 0 z "},"V":{"ha":831,"x_min":29,"x_max":801,"o":"m 29 940 l 42 958 l 94 958 l 396 61 l 436 61 l 738 958 l 790 958 l 801 940 l 481 0 l 350 0 l 29 940 z "},"W":{"ha":1247,"x_min":43,"x_max":1204,"o":"m 43 940 l 56 958 l 106 958 l 333 61 l 354 61 l 590 844 l 658 844 l 893 61 l 915 61 l 1142 958 l 1192 958 l 1204 940 l 964 0 l 846 0 l 624 760 l 401 0 l 285 0 l 43 940 z "},"X":{"ha":817,"x_min":43,"x_max":774,"o":"m 43 18 l 369 493 l 61 940 l 69 958 l 126 958 l 408 542 l 690 958 l 747 958 l 756 940 l 447 493 l 774 18 l 765 0 l 708 0 l 408 446 l 108 0 l 51 0 l 43 18 z "},"Y":{"ha":775,"x_min":29,"x_max":746,"o":"m 29 940 l 40 958 l 94 958 l 388 426 l 681 958 l 736 958 l 746 940 l 421 365 l 421 0 l 354 0 l 354 365 l 29 940 z "},"Z":{"ha":826,"x_min":76,"x_max":750,"o":"m 76 0 l 76 56 l 657 897 l 90 897 l 90 958 l 736 958 l 736 903 l 156 61 l 750 61 l 750 0 l 76 0 z "},"À":{"ha":844,"x_min":29,"x_max":815,"o":"m 29 18 l 361 958 l 485 958 l 815 18 l 804 0 l 750 0 l 658 269 l 186 269 l 94 0 l 42 0 l 29 18 m 210 331 l 636 331 l 443 897 l 403 897 l 210 331 m 271 1203 l 317 1249 l 489 1058 l 450 1021 l 271 1203 z "},"Á":{"ha":844,"x_min":29,"x_max":815,"o":"m 29 18 l 361 958 l 485 958 l 815 18 l 804 0 l 750 0 l 658 269 l 186 269 l 94 0 l 42 0 l 29 18 m 210 331 l 636 331 l 443 897 l 403 897 l 210 331 m 356 1058 l 528 1249 l 574 1203 l 394 1021 l 356 1058 z "},"Â":{"ha":844,"x_min":29,"x_max":815,"o":"m 29 18 l 361 958 l 485 958 l 815 18 l 804 0 l 750 0 l 658 269 l 186 269 l 94 0 l 42 0 l 29 18 m 210 331 l 636 331 l 443 897 l 403 897 l 210 331 m 246 1078 l 422 1250 l 599 1078 l 561 1039 l 422 1171 l 283 1039 l 246 1078 z "},"Ã":{"ha":844,"x_min":29,"x_max":815,"o":"m 29 18 l 361 958 l 485 958 l 815 18 l 804 0 l 750 0 l 658 269 l 186 269 l 94 0 l 42 0 l 29 18 m 210 331 l 636 331 l 443 897 l 403 897 l 210 331 m 225 1104 l 288 1167 q 357 1199 321 1199 q 424 1167 393 1199 l 457 1133 q 488 1117 474 1117 q 518 1133 501 1117 l 581 1196 l 618 1158 l 556 1096 q 488 1064 524 1064 q 419 1096 451 1064 l 386 1129 q 357 1146 371 1146 q 325 1129 343 1146 l 263 1067 l 225 1104 z "},"Ä":{"ha":844,"x_min":29,"x_max":815,"o":"m 29 18 l 361 958 l 485 958 l 815 18 l 804 0 l 750 0 l 658 269 l 186 269 l 94 0 l 42 0 l 29 18 m 210 331 l 636 331 l 443 897 l 403 897 l 210 331 m 268 1090 l 268 1182 l 344 1182 l 344 1090 l 268 1090 m 500 1090 l 500 1182 l 576 1182 l 576 1090 l 500 1090 z "},"Å":{"ha":844,"x_min":29,"x_max":815,"o":"m 29 18 l 361 958 l 485 958 l 815 18 l 804 0 l 750 0 l 658 269 l 186 269 l 94 0 l 42 0 l 29 18 m 210 331 l 636 331 l 443 897 l 403 897 l 210 331 m 293 1113 l 293 1192 q 381 1279 293 1279 l 465 1279 q 553 1192 553 1279 l 553 1113 q 465 1025 553 1025 l 381 1025 q 293 1113 293 1025 m 343 1108 q 381 1071 343 1071 l 464 1071 q 503 1108 503 1071 l 503 1196 q 464 1233 503 1233 l 381 1233 q 343 1196 343 1233 l 343 1108 z "},"Æ":{"ha":1204,"x_min":29,"x_max":1135,"o":"m 29 18 l 361 958 l 1135 958 l 1135 897 l 651 897 l 651 539 l 1093 539 l 1093 478 l 651 478 l 651 61 l 1135 61 l 1135 0 l 585 0 l 585 269 l 186 269 l 94 0 l 42 0 l 29 18 m 210 331 l 585 331 l 585 897 l 403 897 l 210 331 z "},"Ç":{"ha":836,"x_min":118,"x_max":767,"o":"m 118 200 l 118 758 q 318 958 118 958 l 722 958 l 767 924 l 767 897 l 311 897 q 185 772 185 897 l 185 186 q 311 61 185 61 l 767 61 l 767 35 l 722 0 l 318 0 q 118 200 118 0 m 318 -196 l 451 -196 q 515 -132 515 -196 l 515 28 l 569 28 l 569 -125 q 450 -244 569 -244 l 350 -244 l 318 -221 l 318 -196 z "},"È":{"ha":808,"x_min":132,"x_max":739,"o":"m 132 0 l 132 958 l 739 958 l 739 897 l 199 897 l 199 539 l 697 539 l 697 478 l 199 478 l 199 61 l 739 61 l 739 0 l 132 0 m 285 1203 l 331 1249 l 503 1058 l 464 1021 l 285 1203 z "},"É":{"ha":808,"x_min":132,"x_max":739,"o":"m 132 0 l 132 958 l 739 958 l 739 897 l 199 897 l 199 539 l 697 539 l 697 478 l 199 478 l 199 61 l 739 61 l 739 0 l 132 0 m 369 1058 l 542 1249 l 588 1203 l 408 1021 l 369 1058 z "},"Ê":{"ha":808,"x_min":132,"x_max":739,"o":"m 132 0 l 132 958 l 739 958 l 739 897 l 199 897 l 199 539 l 697 539 l 697 478 l 199 478 l 199 61 l 739 61 l 739 0 l 132 0 m 260 1078 l 436 1250 l 613 1078 l 575 1039 l 436 1171 l 297 1039 l 260 1078 z "},"Ë":{"ha":808,"x_min":132,"x_max":739,"o":"m 132 0 l 132 958 l 739 958 l 739 897 l 199 897 l 199 539 l 697 539 l 697 478 l 199 478 l 199 61 l 739 61 l 739 0 l 132 0 m 282 1090 l 282 1182 l 358 1182 l 358 1090 l 282 1090 m 514 1090 l 514 1182 l 590 1182 l 590 1090 l 514 1090 z "},"Ì":{"ha":331,"x_min":14,"x_max":232,"o":"m 132 0 l 132 958 l 199 958 l 199 0 l 132 0 m 14 1203 l 60 1249 l 232 1058 l 193 1021 l 14 1203 z "},"Í":{"ha":331,"x_min":99,"x_max":317,"o":"m 132 0 l 132 958 l 199 958 l 199 0 l 132 0 m 99 1058 l 271 1249 l 317 1203 l 138 1021 l 99 1058 z "},"Î":{"ha":331,"x_min":-11,"x_max":342,"o":"m 132 0 l 132 958 l 199 958 l 199 0 l 132 0 m -11 1078 l 165 1250 l 342 1078 l 304 1039 l 165 1171 l 26 1039 l -11 1078 z "},"Ï":{"ha":331,"x_min":11,"x_max":319,"o":"m 132 0 l 132 958 l 199 958 l 199 0 l 132 0 m 11 1090 l 11 1182 l 88 1182 l 88 1090 l 11 1090 m 243 1090 l 243 1182 l 319 1182 l 319 1090 l 243 1090 z "},"Ð":{"ha":947,"x_min":28,"x_max":843,"o":"m 28 453 l 28 506 l 140 506 l 140 958 l 557 958 q 843 672 843 958 l 843 286 q 557 0 843 0 l 140 0 l 140 453 l 28 453 m 207 61 l 557 61 q 776 281 776 61 l 776 678 q 557 897 776 897 l 207 897 l 207 506 l 492 506 l 492 453 l 207 453 l 207 61 z "},"Ñ":{"ha":985,"x_min":132,"x_max":853,"o":"m 132 0 l 132 958 l 208 958 l 786 92 l 786 958 l 853 958 l 853 0 l 776 0 l 199 867 l 199 0 l 132 0 m 304 1104 l 367 1167 q 436 1199 400 1199 q 503 1167 472 1199 l 536 1133 q 567 1117 553 1117 q 597 1133 581 1117 l 660 1196 l 697 1158 l 635 1096 q 567 1064 603 1064 q 499 1096 531 1064 l 465 1129 q 436 1146 450 1146 q 404 1129 422 1146 l 342 1067 l 304 1104 z "},"Ò":{"ha":965,"x_min":118,"x_max":847,"o":"m 118 200 l 118 758 q 318 958 118 958 l 647 958 q 847 758 847 958 l 847 200 q 647 0 847 0 l 318 0 q 118 200 118 0 m 185 186 q 311 61 185 61 l 656 61 q 781 186 781 61 l 781 772 q 656 897 781 897 l 311 897 q 185 772 185 897 l 185 186 m 332 1203 l 378 1249 l 550 1058 l 511 1021 l 332 1203 z "},"Ó":{"ha":965,"x_min":118,"x_max":847,"o":"m 118 200 l 118 758 q 318 958 118 958 l 647 958 q 847 758 847 958 l 847 200 q 647 0 847 0 l 318 0 q 118 200 118 0 m 185 186 q 311 61 185 61 l 656 61 q 781 186 781 61 l 781 772 q 656 897 781 897 l 311 897 q 185 772 185 897 l 185 186 m 417 1058 l 589 1249 l 635 1203 l 456 1021 l 417 1058 z "},"Ô":{"ha":965,"x_min":118,"x_max":847,"o":"m 118 200 l 118 758 q 318 958 118 958 l 647 958 q 847 758 847 958 l 847 200 q 647 0 847 0 l 318 0 q 118 200 118 0 m 185 186 q 311 61 185 61 l 656 61 q 781 186 781 61 l 781 772 q 656 897 781 897 l 311 897 q 185 772 185 897 l 185 186 m 307 1078 l 483 1250 l 660 1078 l 622 1039 l 483 1171 l 344 1039 l 307 1078 z "},"Õ":{"ha":965,"x_min":118,"x_max":847,"o":"m 118 200 l 118 758 q 318 958 118 958 l 647 958 q 847 758 847 958 l 847 200 q 647 0 847 0 l 318 0 q 118 200 118 0 m 185 186 q 311 61 185 61 l 656 61 q 781 186 781 61 l 781 772 q 656 897 781 897 l 311 897 q 185 772 185 897 l 185 186 m 286 1104 l 349 1167 q 418 1199 382 1199 q 485 1167 454 1199 l 518 1133 q 549 1117 535 1117 q 579 1133 563 1117 l 642 1196 l 679 1158 l 617 1096 q 549 1064 585 1064 q 481 1096 513 1064 l 447 1129 q 418 1146 432 1146 q 386 1129 404 1146 l 324 1067 l 286 1104 z "},"Ö":{"ha":965,"x_min":118,"x_max":847,"o":"m 118 200 l 118 758 q 318 958 118 958 l 647 958 q 847 758 847 958 l 847 200 q 647 0 847 0 l 318 0 q 118 200 118 0 m 185 186 q 311 61 185 61 l 656 61 q 781 186 781 61 l 781 772 q 656 897 781 897 l 311 897 q 185 772 185 897 l 185 186 m 329 1090 l 329 1182 l 406 1182 l 406 1090 l 329 1090 m 561 1090 l 561 1182 l 638 1182 l 638 1090 l 561 1090 z "},"Ø":{"ha":965,"x_min":118,"x_max":847,"o":"m 118 200 l 118 758 q 318 958 118 958 l 647 958 q 847 758 847 958 l 847 200 q 647 0 847 0 l 318 0 q 118 200 118 0 m 185 250 l 779 786 q 656 897 774 897 l 311 897 q 185 772 185 897 l 185 250 m 186 172 q 311 61 192 61 l 656 61 q 781 186 781 61 l 781 708 l 186 172 z "},"Ù":{"ha":949,"x_min":124,"x_max":825,"o":"m 124 200 l 124 958 l 190 958 l 190 186 q 317 61 190 61 l 633 61 q 758 186 758 61 l 758 958 l 825 958 l 825 200 q 625 0 825 0 l 324 0 q 124 200 124 0 m 324 1203 l 369 1249 l 542 1058 l 503 1021 l 324 1203 z "},"Ú":{"ha":949,"x_min":124,"x_max":825,"o":"m 124 200 l 124 958 l 190 958 l 190 186 q 317 61 190 61 l 633 61 q 758 186 758 61 l 758 958 l 825 958 l 825 200 q 625 0 825 0 l 324 0 q 124 200 124 0 m 408 1058 l 581 1249 l 626 1203 l 447 1021 l 408 1058 z "},"Û":{"ha":949,"x_min":124,"x_max":825,"o":"m 124 200 l 124 958 l 190 958 l 190 186 q 317 61 190 61 l 633 61 q 758 186 758 61 l 758 958 l 825 958 l 825 200 q 625 0 825 0 l 324 0 q 124 200 124 0 m 299 1078 l 475 1250 l 651 1078 l 614 1039 l 475 1171 l 336 1039 l 299 1078 z "},"Ü":{"ha":949,"x_min":124,"x_max":825,"o":"m 124 200 l 124 958 l 190 958 l 190 186 q 317 61 190 61 l 633 61 q 758 186 758 61 l 758 958 l 825 958 l 825 200 q 625 0 825 0 l 324 0 q 124 200 124 0 m 321 1090 l 321 1182 l 397 1182 l 397 1090 l 321 1090 m 553 1090 l 553 1182 l 629 1182 l 629 1090 l 553 1090 z "},"Ý":{"ha":775,"x_min":29,"x_max":746,"o":"m 29 940 l 40 958 l 94 958 l 388 426 l 681 958 l 736 958 l 746 940 l 421 365 l 421 0 l 354 0 l 354 365 l 29 940 m 321 1058 l 493 1249 l 539 1203 l 360 1021 l 321 1058 z "},"Þ":{"ha":868,"x_min":132,"x_max":778,"o":"m 132 0 l 132 958 l 199 958 l 199 775 l 578 775 q 778 575 778 775 l 778 403 q 578 203 778 203 l 199 203 l 199 0 l 132 0 m 199 264 l 586 264 q 711 389 711 264 l 711 589 q 586 714 711 714 l 199 714 l 199 264 z "},"Ā":{"ha":844,"x_min":29,"x_max":815,"o":"m 29 18 l 361 958 l 485 958 l 815 18 l 804 0 l 750 0 l 658 269 l 186 269 l 94 0 l 42 0 l 29 18 m 210 331 l 636 331 l 443 897 l 403 897 l 210 331 m 256 1103 l 256 1165 l 589 1165 l 589 1103 l 256 1103 z "},"Ă":{"ha":844,"x_min":29,"x_max":815,"o":"m 29 18 l 361 958 l 485 958 l 815 18 l 804 0 l 750 0 l 658 269 l 186 269 l 94 0 l 42 0 l 29 18 m 210 331 l 636 331 l 443 897 l 403 897 l 210 331 m 260 1150 l 260 1225 l 314 1225 l 314 1149 q 347 1115 314 1115 l 499 1115 q 532 1149 532 1115 l 532 1225 l 586 1225 l 586 1150 q 496 1061 586 1061 l 349 1061 q 260 1150 260 1061 z "},"Ą":{"ha":844,"x_min":29,"x_max":815,"o":"m 29 18 l 361 958 l 485 958 l 815 18 l 804 0 l 750 0 l 658 269 l 186 269 l 94 0 l 42 0 l 29 18 m 210 331 l 636 331 l 443 897 l 403 897 l 210 331 m 569 -71 q 689 49 569 49 l 726 49 l 726 0 l 683 0 q 622 -61 622 0 l 622 -135 q 683 -196 622 -196 l 815 -196 l 815 -221 l 783 -244 l 689 -244 q 569 -125 569 -244 l 569 -71 z "},"Ć":{"ha":836,"x_min":118,"x_max":767,"o":"m 118 200 l 118 758 q 318 958 118 958 l 722 958 l 767 924 l 767 897 l 311 897 q 185 772 185 897 l 185 186 q 311 61 185 61 l 767 61 l 767 35 l 722 0 l 318 0 q 118 200 118 0 m 403 1058 l 575 1249 l 621 1203 l 442 1021 l 403 1058 z "},"Č":{"ha":836,"x_min":118,"x_max":767,"o":"m 118 200 l 118 758 q 318 958 118 958 l 722 958 l 767 924 l 767 897 l 311 897 q 185 772 185 897 l 185 186 q 311 61 185 61 l 767 61 l 767 35 l 722 0 l 318 0 q 118 200 118 0 m 293 1197 l 331 1236 l 469 1104 l 608 1236 l 646 1197 l 469 1025 l 293 1197 z "},"Ď":{"ha":938,"x_min":132,"x_max":833,"o":"m 132 0 l 132 958 l 514 958 q 833 638 833 958 l 833 321 q 514 0 833 0 l 132 0 m 199 61 l 518 61 q 767 310 767 61 l 767 649 q 518 897 767 897 l 199 897 l 199 61 m 279 1197 l 317 1236 l 456 1104 l 594 1236 l 632 1197 l 456 1025 l 279 1197 z "},"Đ":{"ha":947,"x_min":28,"x_max":843,"o":"m 28 453 l 28 506 l 140 506 l 140 958 l 557 958 q 843 672 843 958 l 843 286 q 557 0 843 0 l 140 0 l 140 453 l 28 453 m 207 61 l 557 61 q 776 281 776 61 l 776 678 q 557 897 776 897 l 207 897 l 207 506 l 492 506 l 492 453 l 207 453 l 207 61 z "},"Ē":{"ha":808,"x_min":132,"x_max":739,"o":"m 132 0 l 132 958 l 739 958 l 739 897 l 199 897 l 199 539 l 697 539 l 697 478 l 199 478 l 199 61 l 739 61 l 739 0 l 132 0 m 269 1103 l 269 1165 l 603 1165 l 603 1103 l 269 1103 z "},"Ė":{"ha":808,"x_min":132,"x_max":739,"o":"m 132 0 l 132 958 l 739 958 l 739 897 l 199 897 l 199 539 l 697 539 l 697 478 l 199 478 l 199 61 l 739 61 l 739 0 l 132 0 m 397 1088 l 397 1183 l 474 1183 l 474 1088 l 397 1088 z "},"Ę":{"ha":808,"x_min":132,"x_max":739,"o":"m 132 0 l 132 958 l 739 958 l 739 897 l 199 897 l 199 539 l 697 539 l 697 478 l 199 478 l 199 61 l 739 61 l 739 0 l 132 0 m 492 -71 q 611 49 492 49 l 649 49 l 649 0 l 606 0 q 544 -61 544 0 l 544 -135 q 606 -196 544 -196 l 738 -196 l 738 -221 l 706 -244 l 611 -244 q 492 -125 492 -244 l 492 -71 z "},"Ě":{"ha":808,"x_min":132,"x_max":739,"o":"m 132 0 l 132 958 l 739 958 l 739 897 l 199 897 l 199 539 l 697 539 l 697 478 l 199 478 l 199 61 l 739 61 l 739 0 l 132 0 m 260 1197 l 297 1236 l 436 1104 l 575 1236 l 613 1197 l 436 1025 l 260 1197 z "},"Ğ":{"ha":924,"x_min":118,"x_max":819,"o":"m 118 200 l 118 758 q 318 958 118 958 l 749 958 l 792 924 l 792 897 l 311 897 q 185 772 185 897 l 185 186 q 311 61 185 61 l 753 61 l 753 478 l 486 478 l 486 539 l 819 539 l 819 0 l 318 0 q 118 200 118 0 m 307 1150 l 307 1225 l 361 1225 l 361 1149 q 394 1115 361 1115 l 546 1115 q 579 1149 579 1115 l 579 1225 l 633 1225 l 633 1150 q 543 1061 633 1061 l 396 1061 q 307 1150 307 1061 z "},"Ģ":{"ha":924,"x_min":118,"x_max":819,"o":"m 118 200 l 118 758 q 318 958 118 958 l 749 958 l 792 924 l 792 897 l 311 897 q 185 772 185 897 l 185 186 q 311 61 185 61 l 753 61 l 753 478 l 486 478 l 486 539 l 819 539 l 819 0 l 318 0 q 118 200 118 0 m 386 -260 l 438 -69 l 501 -69 l 510 -83 l 436 -274 l 386 -260 z "},"Ī":{"ha":331,"x_min":-1,"x_max":332,"o":"m 132 0 l 132 958 l 199 958 l 199 0 l 132 0 m -1 1103 l -1 1165 l 332 1165 l 332 1103 l -1 1103 z "},"Į":{"ha":331,"x_min":6,"x_max":251,"o":"m 132 0 l 132 958 l 199 958 l 199 0 l 132 0 m 6 -71 q 125 49 6 49 l 163 49 l 163 0 l 119 0 q 58 -61 58 0 l 58 -135 q 119 -196 58 -196 l 251 -196 l 251 -221 l 219 -244 l 125 -244 q 6 -125 6 -244 l 6 -71 z "},"İ":{"ha":331,"x_min":126,"x_max":203,"o":"m 132 0 l 132 958 l 199 958 l 199 0 l 132 0 m 126 1088 l 126 1183 l 203 1183 l 203 1088 l 126 1088 z "},"Ķ":{"ha":840,"x_min":132,"x_max":797,"o":"m 132 0 l 132 958 l 199 958 l 199 399 l 700 958 l 758 958 l 767 940 l 428 564 l 797 18 l 789 0 l 728 0 l 383 515 l 199 310 l 199 0 l 132 0 m 349 -260 l 400 -69 l 464 -69 l 472 -83 l 399 -274 l 349 -260 z "},"Ĺ":{"ha":731,"x_min":107,"x_max":697,"o":"m 132 0 l 132 958 l 199 958 l 199 61 l 697 61 l 697 0 l 132 0 m 107 1058 l 279 1249 l 325 1203 l 146 1021 l 107 1058 z "},"Ļ":{"ha":731,"x_min":132,"x_max":697,"o":"m 132 0 l 132 958 l 199 958 l 199 61 l 697 61 l 697 0 l 132 0 m 331 -260 l 382 -69 l 446 -69 l 454 -83 l 381 -274 l 331 -260 z "},"Ľ":{"ha":731,"x_min":132,"x_max":697,"o":"m 132 0 l 132 958 l 199 958 l 199 61 l 697 61 l 697 0 l 132 0 m 392 760 l 438 979 l 497 979 l 506 965 l 433 750 l 392 760 z "},"Ł":{"ha":728,"x_min":14,"x_max":694,"o":"m 14 378 l 129 444 l 129 958 l 196 958 l 196 482 l 403 601 l 429 556 l 196 422 l 196 61 l 694 61 l 694 0 l 129 0 l 129 383 l 40 332 l 14 378 z "},"Ń":{"ha":985,"x_min":132,"x_max":853,"o":"m 132 0 l 132 958 l 208 958 l 786 92 l 786 958 l 853 958 l 853 0 l 776 0 l 199 867 l 199 0 l 132 0 m 435 1058 l 607 1249 l 653 1203 l 474 1021 l 435 1058 z "},"Ņ":{"ha":985,"x_min":132,"x_max":853,"o":"m 132 0 l 132 958 l 208 958 l 786 92 l 786 958 l 853 958 l 853 0 l 776 0 l 199 867 l 199 0 l 132 0 m 401 -260 l 453 -69 l 517 -69 l 525 -83 l 451 -274 l 401 -260 z "},"Ň":{"ha":985,"x_min":132,"x_max":853,"o":"m 132 0 l 132 958 l 208 958 l 786 92 l 786 958 l 853 958 l 853 0 l 776 0 l 199 867 l 199 0 l 132 0 m 325 1197 l 363 1236 l 501 1104 l 640 1236 l 678 1197 l 501 1025 l 325 1197 z "},"Ō":{"ha":965,"x_min":118,"x_max":847,"o":"m 118 200 l 118 758 q 318 958 118 958 l 647 958 q 847 758 847 958 l 847 200 q 647 0 847 0 l 318 0 q 118 200 118 0 m 185 186 q 311 61 185 61 l 656 61 q 781 186 781 61 l 781 772 q 656 897 781 897 l 311 897 q 185 772 185 897 l 185 186 m 317 1103 l 317 1165 l 650 1165 l 650 1103 l 317 1103 z "},"Ő":{"ha":965,"x_min":118,"x_max":847,"o":"m 118 200 l 118 758 q 318 958 118 958 l 647 958 q 847 758 847 958 l 847 200 q 647 0 847 0 l 318 0 q 118 200 118 0 m 185 186 q 311 61 185 61 l 656 61 q 781 186 781 61 l 781 772 q 656 897 781 897 l 311 897 q 185 772 185 897 l 185 186 m 336 1057 l 488 1250 l 540 1204 l 375 1019 l 336 1057 m 549 1057 l 700 1250 l 753 1204 l 588 1019 l 549 1057 z "},"Œ":{"ha":1325,"x_min":118,"x_max":1256,"o":"m 118 200 l 118 758 q 318 958 118 958 l 1256 958 l 1256 897 l 772 897 l 772 539 l 1214 539 l 1214 478 l 772 478 l 772 61 l 1256 61 l 1256 0 l 318 0 q 118 200 118 0 m 185 186 q 311 61 185 61 l 706 61 l 706 897 l 311 897 q 185 772 185 897 l 185 186 z "},"Ŕ":{"ha":882,"x_min":132,"x_max":806,"o":"m 132 0 l 132 958 l 578 958 q 778 758 778 958 l 778 608 q 608 410 778 424 l 806 19 l 796 0 l 742 0 l 535 408 l 199 408 l 199 0 l 132 0 m 199 469 l 586 469 q 711 596 711 469 l 711 772 q 586 897 711 897 l 199 897 l 199 469 m 369 1058 l 542 1249 l 588 1203 l 408 1021 l 369 1058 z "},"Ŗ":{"ha":882,"x_min":132,"x_max":806,"o":"m 132 0 l 132 958 l 578 958 q 778 758 778 958 l 778 608 q 608 410 778 424 l 806 19 l 796 0 l 742 0 l 535 408 l 199 408 l 199 0 l 132 0 m 199 469 l 586 469 q 711 596 711 469 l 711 772 q 586 897 711 897 l 199 897 l 199 469 m 353 -260 l 404 -69 l 468 -69 l 476 -83 l 403 -274 l 353 -260 z "},"Ř":{"ha":882,"x_min":132,"x_max":806,"o":"m 132 0 l 132 958 l 578 958 q 778 758 778 958 l 778 608 q 608 410 778 424 l 806 19 l 796 0 l 742 0 l 535 408 l 199 408 l 199 0 l 132 0 m 199 469 l 586 469 q 711 596 711 469 l 711 772 q 586 897 711 897 l 199 897 l 199 469 m 260 1197 l 297 1236 l 436 1104 l 575 1236 l 613 1197 l 436 1025 l 260 1197 z "},"Ś":{"ha":799,"x_min":90,"x_max":708,"o":"m 90 35 l 90 61 l 517 61 q 642 186 642 61 l 642 307 q 550 428 642 410 l 235 492 q 90 686 90 521 l 90 758 q 290 958 90 958 l 638 958 l 681 924 l 681 897 l 283 897 q 157 772 157 897 l 157 675 q 249 553 157 571 l 564 490 q 708 296 708 461 l 708 200 q 508 0 708 0 l 135 0 l 90 35 m 333 1058 l 506 1249 l 551 1203 l 372 1021 l 333 1058 z "},"Ş":{"ha":799,"x_min":90,"x_max":708,"o":"m 90 35 l 90 61 l 517 61 q 642 186 642 61 l 642 307 q 550 428 642 410 l 235 492 q 90 686 90 521 l 90 758 q 290 958 90 958 l 638 958 l 681 924 l 681 897 l 283 897 q 157 772 157 897 l 157 675 q 249 553 157 571 l 564 490 q 708 296 708 461 l 708 200 q 508 0 708 0 l 135 0 l 90 35 m 249 -196 l 382 -196 q 446 -132 446 -196 l 446 28 l 500 28 l 500 -125 q 381 -244 500 -244 l 281 -244 l 249 -221 l 249 -196 z "},"Š":{"ha":799,"x_min":90,"x_max":708,"o":"m 90 35 l 90 61 l 517 61 q 642 186 642 61 l 642 307 q 550 428 642 410 l 235 492 q 90 686 90 521 l 90 758 q 290 958 90 958 l 638 958 l 681 924 l 681 897 l 283 897 q 157 772 157 897 l 157 675 q 249 553 157 571 l 564 490 q 708 296 708 461 l 708 200 q 508 0 708 0 l 135 0 l 90 35 m 224 1197 l 261 1236 l 400 1104 l 539 1236 l 576 1197 l 400 1025 l 224 1197 z "},"Ţ":{"ha":806,"x_min":33,"x_max":772,"o":"m 33 897 l 33 958 l 772 958 l 772 897 l 436 897 l 436 0 l 369 0 l 369 897 l 33 897 m 253 -196 l 386 -196 q 450 -132 450 -196 l 450 28 l 504 28 l 504 -125 q 385 -244 504 -244 l 285 -244 l 253 -221 l 253 -196 z "},"Ť":{"ha":806,"x_min":33,"x_max":772,"o":"m 33 897 l 33 958 l 772 958 l 772 897 l 436 897 l 436 0 l 369 0 l 369 897 l 33 897 m 226 1197 l 264 1236 l 403 1104 l 542 1236 l 579 1197 l 403 1025 l 226 1197 z "},"Ū":{"ha":949,"x_min":124,"x_max":825,"o":"m 124 200 l 124 958 l 190 958 l 190 186 q 317 61 190 61 l 633 61 q 758 186 758 61 l 758 958 l 825 958 l 825 200 q 625 0 825 0 l 324 0 q 124 200 124 0 m 308 1103 l 308 1165 l 642 1165 l 642 1103 l 308 1103 z "},"Ů":{"ha":949,"x_min":124,"x_max":825,"o":"m 124 200 l 124 958 l 190 958 l 190 186 q 317 61 190 61 l 633 61 q 758 186 758 61 l 758 958 l 825 958 l 825 200 q 625 0 825 0 l 324 0 q 124 200 124 0 m 346 1113 l 346 1192 q 433 1279 346 1279 l 518 1279 q 606 1192 606 1279 l 606 1113 q 518 1025 606 1025 l 433 1025 q 346 1113 346 1025 m 396 1108 q 433 1071 396 1071 l 517 1071 q 556 1108 556 1071 l 556 1196 q 517 1233 556 1233 l 433 1233 q 396 1196 396 1233 l 396 1108 z "},"Ű":{"ha":949,"x_min":124,"x_max":825,"o":"m 124 200 l 124 958 l 190 958 l 190 186 q 317 61 190 61 l 633 61 q 758 186 758 61 l 758 958 l 825 958 l 825 200 q 625 0 825 0 l 324 0 q 124 200 124 0 m 328 1057 l 479 1250 l 532 1204 l 367 1019 l 328 1057 m 540 1057 l 692 1250 l 744 1204 l 579 1019 l 540 1057 z "},"Ų":{"ha":949,"x_min":124,"x_max":825,"o":"m 124 200 l 124 958 l 190 958 l 190 186 q 317 61 190 61 l 633 61 q 758 186 758 61 l 758 958 l 825 958 l 825 200 q 625 0 825 0 l 324 0 q 124 200 124 0 m 435 -71 q 554 49 435 49 l 592 49 l 592 0 l 549 0 q 488 -61 488 0 l 488 -135 q 549 -196 488 -196 l 681 -196 l 681 -221 l 649 -244 l 554 -244 q 435 -125 435 -244 l 435 -71 z "},"Ÿ":{"ha":775,"x_min":29,"x_max":746,"o":"m 29 940 l 40 958 l 94 958 l 388 426 l 681 958 l 736 958 l 746 940 l 421 365 l 421 0 l 354 0 l 354 365 l 29 940 m 233 1090 l 233 1182 l 310 1182 l 310 1090 l 233 1090 m 465 1090 l 465 1182 l 542 1182 l 542 1090 l 465 1090 z "},"Ź":{"ha":826,"x_min":76,"x_max":750,"o":"m 76 0 l 76 56 l 657 897 l 90 897 l 90 958 l 736 958 l 736 903 l 156 61 l 750 61 l 750 0 l 76 0 m 347 1058 l 519 1249 l 565 1203 l 386 1021 l 347 1058 z "},"Ż":{"ha":826,"x_min":76,"x_max":750,"o":"m 76 0 l 76 56 l 657 897 l 90 897 l 90 958 l 736 958 l 736 903 l 156 61 l 750 61 l 750 0 l 76 0 m 375 1088 l 375 1183 l 451 1183 l 451 1088 l 375 1088 z "},"Ž":{"ha":826,"x_min":76,"x_max":750,"o":"m 76 0 l 76 56 l 657 897 l 90 897 l 90 958 l 736 958 l 736 903 l 156 61 l 750 61 l 750 0 l 76 0 m 238 1197 l 275 1236 l 414 1104 l 553 1236 l 590 1197 l 414 1025 l 238 1197 z "},"Ș":{"ha":799,"x_min":90,"x_max":708,"o":"m 90 35 l 90 61 l 517 61 q 642 186 642 61 l 642 307 q 550 428 642 410 l 235 492 q 90 686 90 521 l 90 758 q 290 958 90 958 l 638 958 l 681 924 l 681 897 l 283 897 q 157 772 157 897 l 157 675 q 249 553 157 571 l 564 490 q 708 296 708 461 l 708 200 q 508 0 708 0 l 135 0 l 90 35 m 317 -260 l 368 -69 l 432 -69 l 440 -83 l 367 -274 l 317 -260 z "},"Ț":{"ha":806,"x_min":33,"x_max":772,"o":"m 33 897 l 33 958 l 772 958 l 772 897 l 436 897 l 436 0 l 369 0 l 369 897 l 33 897 m 321 -260 l 372 -69 l 436 -69 l 444 -83 l 371 -274 l 321 -260 z "},"ẞ":{"ha":935,"x_min":124,"x_max":844,"o":"m 124 0 l 124 758 q 324 958 124 958 l 769 958 l 769 903 l 490 539 l 644 539 q 844 339 844 539 l 844 200 q 644 0 844 0 l 413 0 l 369 35 l 369 61 l 653 61 q 778 186 778 61 l 778 353 q 653 478 778 478 l 406 478 l 406 533 l 685 897 l 317 897 q 190 772 190 897 l 190 0 l 124 0 z "},"Ω":{"ha":965,"x_min":90,"x_max":875,"o":"m 90 0 l 90 61 l 310 61 l 161 260 q 118 390 118 317 l 118 758 q 318 958 118 958 l 647 958 q 847 758 847 958 l 847 390 q 804 260 847 317 l 656 61 l 875 61 l 875 0 l 576 0 l 576 60 l 740 278 q 781 399 781 333 l 781 772 q 656 897 781 897 l 311 897 q 185 772 185 897 l 185 399 q 225 278 185 333 l 389 60 l 389 0 l 90 0 z "},"µ":{"ha":807,"x_min":118,"x_max":694,"o":"m 118 -278 l 118 715 l 181 715 l 181 56 l 503 56 q 632 185 632 56 l 632 715 l 694 715 l 694 199 q 497 0 694 0 l 181 0 l 181 -278 l 118 -278 z "},"ℓ":{"ha":319,"x_min":113,"x_max":278,"o":"m 113 156 l 113 1028 l 175 1028 l 175 150 q 278 44 175 47 l 278 -10 q 113 156 113 -10 z "},"a":{"ha":746,"x_min":79,"x_max":633,"o":"m 279 0 q 79 203 79 0 q 279 406 79 406 l 571 406 l 571 531 q 442 660 571 660 l 143 660 l 143 686 l 182 715 l 436 715 q 633 517 633 715 l 633 0 l 279 0 m 142 185 q 271 56 142 56 l 571 56 l 571 350 l 271 350 q 142 221 142 350 l 142 185 z "},"b":{"ha":801,"x_min":118,"x_max":694,"o":"m 118 0 l 118 1028 l 181 1028 l 181 715 l 497 715 q 694 517 694 715 l 694 199 q 497 0 694 0 l 118 0 m 181 56 l 503 56 q 632 185 632 56 l 632 531 q 503 660 632 660 l 181 660 l 181 56 z "},"c":{"ha":689,"x_min":107,"x_max":625,"o":"m 107 199 l 107 517 q 306 715 107 715 l 586 715 l 625 686 l 625 660 l 299 660 q 169 531 169 660 l 169 185 q 299 56 169 56 l 625 56 l 625 29 l 586 0 l 306 0 q 107 199 107 0 z "},"d":{"ha":801,"x_min":107,"x_max":683,"o":"m 107 199 l 107 517 q 306 715 107 715 l 621 715 l 621 1028 l 683 1028 l 683 0 l 306 0 q 107 199 107 0 m 169 185 q 299 56 169 56 l 621 56 l 621 660 l 299 660 q 169 531 169 660 l 169 185 z "},"e":{"ha":790,"x_min":107,"x_max":683,"o":"m 107 199 l 107 517 q 306 715 107 715 l 486 715 q 683 517 683 715 l 683 332 l 169 332 l 169 185 q 299 56 169 56 l 656 56 l 656 29 l 617 0 l 306 0 q 107 199 107 0 m 169 388 l 621 388 l 621 531 q 492 660 621 660 l 299 660 q 169 531 169 660 l 169 388 z "},"f":{"ha":501,"x_min":118,"x_max":474,"o":"m 118 0 l 118 829 q 317 1028 118 1028 l 435 1028 l 474 999 l 474 972 l 310 972 q 181 843 181 972 l 181 715 l 460 715 l 460 660 l 181 660 l 181 0 l 118 0 z "},"g":{"ha":808,"x_min":110,"x_max":688,"o":"m 110 199 l 110 517 q 308 715 110 715 l 688 715 l 688 -79 q 489 -278 688 -278 l 200 -278 l 161 -249 l 161 -222 l 496 -222 q 625 -93 625 -222 l 625 0 l 308 0 q 110 199 110 0 m 172 185 q 301 56 172 56 l 625 56 l 625 660 l 301 660 q 172 531 172 660 l 172 185 z "},"h":{"ha":807,"x_min":118,"x_max":694,"o":"m 118 0 l 118 1028 l 181 1028 l 181 715 l 497 715 q 694 517 694 715 l 694 0 l 632 0 l 632 531 q 503 660 632 660 l 181 660 l 181 0 l 118 0 z "},"i":{"ha":299,"x_min":111,"x_max":188,"o":"m 111 858 l 111 954 l 188 954 l 188 858 l 111 858 m 118 0 l 118 715 l 181 715 l 181 0 l 118 0 z "},"j":{"ha":299,"x_min":-10,"x_max":188,"o":"m -10 -233 q 118 -103 118 -231 l 118 715 l 181 715 l 181 -97 q -10 -287 181 -287 l -10 -233 m 111 858 l 111 954 l 188 954 l 188 858 l 111 858 z "},"k":{"ha":690,"x_min":118,"x_max":650,"o":"m 118 0 l 118 1028 l 181 1028 l 181 293 l 564 715 l 624 715 l 631 701 l 369 414 l 650 14 l 643 0 l 582 0 l 328 368 l 181 210 l 181 0 l 118 0 z "},"l":{"ha":319,"x_min":113,"x_max":278,"o":"m 113 156 l 113 1028 l 175 1028 l 175 150 q 278 44 175 47 l 278 -10 q 113 156 113 -10 z "},"m":{"ha":1238,"x_min":118,"x_max":1125,"o":"m 118 0 l 118 715 l 928 715 q 1125 517 1125 715 l 1125 0 l 1063 0 l 1063 531 q 933 660 1063 660 l 653 660 l 653 0 l 590 0 l 590 660 l 181 660 l 181 0 l 118 0 z "},"n":{"ha":807,"x_min":118,"x_max":694,"o":"m 118 0 l 118 715 l 497 715 q 694 517 694 715 l 694 0 l 632 0 l 632 531 q 503 660 632 660 l 181 660 l 181 0 l 118 0 z "},"o":{"ha":804,"x_min":107,"x_max":697,"o":"m 107 199 l 107 517 q 306 715 107 715 l 500 715 q 697 517 697 715 l 697 199 q 500 0 697 0 l 306 0 q 107 199 107 0 m 169 185 q 299 56 169 56 l 506 56 q 635 185 635 56 l 635 531 q 506 660 635 660 l 299 660 q 169 531 169 660 l 169 185 z "},"p":{"ha":801,"x_min":118,"x_max":694,"o":"m 118 -278 l 118 715 l 497 715 q 694 517 694 715 l 694 199 q 497 0 694 0 l 181 0 l 181 -278 l 118 -278 m 181 56 l 503 56 q 632 185 632 56 l 632 531 q 503 660 632 660 l 181 660 l 181 56 z "},"q":{"ha":801,"x_min":107,"x_max":683,"o":"m 107 199 l 107 517 q 306 715 107 715 l 683 715 l 683 -278 l 621 -278 l 621 0 l 306 0 q 107 199 107 0 m 169 185 q 299 56 169 56 l 621 56 l 621 660 l 299 660 q 169 531 169 660 l 169 185 z "},"r":{"ha":490,"x_min":113,"x_max":454,"o":"m 113 0 l 113 639 q 283 715 160 715 l 415 715 l 454 686 l 454 660 l 276 660 q 175 622 207 660 l 175 0 l 113 0 z "},"s":{"ha":688,"x_min":88,"x_max":600,"o":"m 88 29 l 88 56 l 410 56 q 536 179 536 56 q 436 321 536 304 l 261 350 q 88 531 88 379 q 288 715 88 715 l 528 715 l 567 686 l 567 660 l 278 660 q 150 536 150 660 q 256 411 150 429 l 431 382 q 600 186 600 354 q 399 0 600 0 l 126 0 l 88 29 z "},"t":{"ha":518,"x_min":113,"x_max":468,"o":"m 113 199 l 113 958 l 175 958 l 175 715 l 454 715 l 454 660 l 175 660 l 175 185 q 304 56 175 56 l 468 56 l 468 29 l 429 0 l 311 0 q 113 199 113 0 z "},"u":{"ha":807,"x_min":113,"x_max":689,"o":"m 113 199 l 113 715 l 175 715 l 175 185 q 304 56 175 56 l 626 56 l 626 715 l 689 715 l 689 0 l 311 0 q 113 199 113 0 z "},"v":{"ha":692,"x_min":29,"x_max":663,"o":"m 29 701 l 38 715 l 92 715 l 328 56 l 364 56 l 600 715 l 654 715 l 663 701 l 407 0 l 286 0 l 29 701 z "},"w":{"ha":1056,"x_min":35,"x_max":1021,"o":"m 35 701 l 44 715 l 94 715 l 264 56 l 289 56 l 490 715 l 565 715 l 767 56 l 793 56 l 963 715 l 1011 715 l 1021 701 l 839 0 l 725 0 l 528 650 l 331 0 l 218 0 l 35 701 z "},"x":{"ha":692,"x_min":43,"x_max":649,"o":"m 43 14 l 308 367 l 54 701 l 61 715 l 119 715 l 346 410 l 572 715 l 631 715 l 638 701 l 385 367 l 649 14 l 643 0 l 583 0 l 346 324 l 108 0 l 50 0 l 43 14 z "},"y":{"ha":692,"x_min":29,"x_max":663,"o":"m 29 701 l 38 715 l 92 715 l 328 56 l 364 56 l 600 715 l 654 715 l 663 701 l 304 -278 l 250 -278 l 242 -264 l 342 0 l 286 0 l 29 701 z "},"z":{"ha":701,"x_min":76,"x_max":625,"o":"m 76 0 l 76 51 l 535 660 l 90 660 l 90 715 l 611 715 l 611 664 l 153 56 l 625 56 l 625 0 l 76 0 z "},"ß":{"ha":821,"x_min":118,"x_max":714,"o":"m 118 0 l 118 829 q 317 1028 118 1028 l 489 1028 q 686 829 686 1028 l 686 682 q 658 601 686 635 l 610 543 l 668 494 q 714 383 714 456 l 714 199 q 517 0 714 0 l 368 0 l 329 29 l 329 56 l 522 56 q 651 185 651 56 l 651 378 q 522 507 651 507 l 343 507 l 343 563 l 494 563 q 624 692 624 563 l 624 843 q 494 972 624 972 l 310 972 q 181 843 181 972 l 181 0 l 118 0 z "},"à":{"ha":746,"x_min":79,"x_max":633,"o":"m 279 0 q 79 203 79 0 q 279 406 79 406 l 571 406 l 571 531 q 442 660 571 660 l 143 660 l 143 686 l 182 715 l 436 715 q 633 517 633 715 l 633 0 l 279 0 m 142 185 q 271 56 142 56 l 571 56 l 571 350 l 271 350 q 142 221 142 350 l 142 185 m 224 974 l 269 1019 l 442 829 l 403 792 l 224 974 z "},"á":{"ha":746,"x_min":79,"x_max":633,"o":"m 279 0 q 79 203 79 0 q 279 406 79 406 l 571 406 l 571 531 q 442 660 571 660 l 143 660 l 143 686 l 182 715 l 436 715 q 633 517 633 715 l 633 0 l 279 0 m 142 185 q 271 56 142 56 l 571 56 l 571 350 l 271 350 q 142 221 142 350 l 142 185 m 307 829 l 479 1019 l 525 974 l 344 793 l 307 829 z "},"â":{"ha":746,"x_min":79,"x_max":633,"o":"m 279 0 q 79 203 79 0 q 279 406 79 406 l 571 406 l 571 531 q 442 660 571 660 l 143 660 l 143 686 l 182 715 l 436 715 q 633 517 633 715 l 633 0 l 279 0 m 142 185 q 271 56 142 56 l 571 56 l 571 350 l 271 350 q 142 221 142 350 l 142 185 m 199 850 l 374 1021 l 550 850 l 513 810 l 374 942 l 236 810 l 199 850 z "},"ã":{"ha":746,"x_min":79,"x_max":633,"o":"m 279 0 q 79 203 79 0 q 279 406 79 406 l 571 406 l 571 531 q 442 660 571 660 l 143 660 l 143 686 l 182 715 l 436 715 q 633 517 633 715 l 633 0 l 279 0 m 142 185 q 271 56 142 56 l 571 56 l 571 350 l 271 350 q 142 221 142 350 l 142 185 m 178 875 l 240 938 q 310 969 274 969 q 376 938 346 969 l 410 904 q 440 888 426 888 q 471 904 454 888 l 533 967 l 571 929 l 508 867 q 440 835 476 835 q 372 867 404 835 l 339 900 q 310 917 324 917 q 278 900 296 917 l 215 838 l 178 875 z "},"ä":{"ha":746,"x_min":79,"x_max":633,"o":"m 279 0 q 79 203 79 0 q 279 406 79 406 l 571 406 l 571 531 q 442 660 571 660 l 143 660 l 143 686 l 182 715 l 436 715 q 633 517 633 715 l 633 0 l 279 0 m 142 185 q 271 56 142 56 l 571 56 l 571 350 l 271 350 q 142 221 142 350 l 142 185 m 219 861 l 219 953 l 296 953 l 296 861 l 219 861 m 451 861 l 451 953 l 528 953 l 528 861 l 451 861 z "},"å":{"ha":746,"x_min":79,"x_max":633,"o":"m 279 0 q 79 203 79 0 q 279 406 79 406 l 571 406 l 571 531 q 442 660 571 660 l 143 660 l 143 686 l 182 715 l 436 715 q 633 517 633 715 l 633 0 l 279 0 m 142 185 q 271 56 142 56 l 571 56 l 571 350 l 271 350 q 142 221 142 350 l 142 185 m 244 885 l 244 964 q 332 1051 244 1051 l 417 1051 q 504 964 504 1051 l 504 885 q 417 797 504 797 l 332 797 q 244 885 244 797 m 294 881 q 332 843 294 843 l 415 843 q 454 881 454 843 l 454 968 q 415 1006 454 1006 l 332 1006 q 294 968 294 1006 l 294 881 z "},"æ":{"ha":1224,"x_min":79,"x_max":1117,"o":"m 279 0 q 79 203 79 0 q 279 406 79 406 l 563 406 l 563 531 q 433 660 563 660 l 143 660 l 143 686 l 182 715 l 428 715 q 594 643 546 715 q 761 715 643 715 l 919 715 q 1117 517 1117 715 l 1117 332 l 625 332 l 625 185 q 754 56 625 56 l 1089 56 l 1089 29 l 1050 0 l 761 0 q 594 72 643 0 q 428 0 546 0 l 279 0 m 142 185 q 271 56 142 56 l 433 56 q 563 185 563 56 l 563 350 l 271 350 q 142 221 142 350 l 142 185 m 625 388 l 1054 388 l 1054 531 q 925 660 1054 660 l 754 660 q 625 531 625 660 l 625 388 z "},"ç":{"ha":689,"x_min":107,"x_max":625,"o":"m 107 199 l 107 517 q 306 715 107 715 l 586 715 l 625 686 l 625 660 l 299 660 q 169 531 169 660 l 169 185 q 299 56 169 56 l 625 56 l 625 29 l 586 0 l 306 0 q 107 199 107 0 m 240 -196 l 374 -196 q 438 -132 438 -196 l 438 28 l 492 28 l 492 -125 q 372 -244 492 -244 l 272 -244 l 240 -221 l 240 -196 z "},"è":{"ha":790,"x_min":107,"x_max":683,"o":"m 107 199 l 107 517 q 306 715 107 715 l 486 715 q 683 517 683 715 l 683 332 l 169 332 l 169 185 q 299 56 169 56 l 656 56 l 656 29 l 617 0 l 306 0 q 107 199 107 0 m 169 388 l 621 388 l 621 531 q 492 660 621 660 l 299 660 q 169 531 169 660 l 169 388 m 244 974 l 290 1019 l 463 829 l 424 792 l 244 974 z "},"é":{"ha":790,"x_min":107,"x_max":683,"o":"m 107 199 l 107 517 q 306 715 107 715 l 486 715 q 683 517 683 715 l 683 332 l 169 332 l 169 185 q 299 56 169 56 l 656 56 l 656 29 l 617 0 l 306 0 q 107 199 107 0 m 169 388 l 621 388 l 621 531 q 492 660 621 660 l 299 660 q 169 531 169 660 l 169 388 m 328 829 l 500 1019 l 546 974 l 365 793 l 328 829 z "},"ê":{"ha":790,"x_min":107,"x_max":683,"o":"m 107 199 l 107 517 q 306 715 107 715 l 486 715 q 683 517 683 715 l 683 332 l 169 332 l 169 185 q 299 56 169 56 l 656 56 l 656 29 l 617 0 l 306 0 q 107 199 107 0 m 169 388 l 621 388 l 621 531 q 492 660 621 660 l 299 660 q 169 531 169 660 l 169 388 m 219 850 l 394 1021 l 571 850 l 533 810 l 394 942 l 257 810 l 219 850 z "},"ë":{"ha":790,"x_min":107,"x_max":683,"o":"m 107 199 l 107 517 q 306 715 107 715 l 486 715 q 683 517 683 715 l 683 332 l 169 332 l 169 185 q 299 56 169 56 l 656 56 l 656 29 l 617 0 l 306 0 q 107 199 107 0 m 169 388 l 621 388 l 621 531 q 492 660 621 660 l 299 660 q 169 531 169 660 l 169 388 m 240 861 l 240 953 l 317 953 l 317 861 l 240 861 m 472 861 l 472 953 l 549 953 l 549 861 l 472 861 z "},"ì":{"ha":299,"x_min":-1,"x_max":217,"o":"m 118 0 l 118 715 l 181 715 l 181 0 l 118 0 m -1 974 l 44 1019 l 217 829 l 178 792 l -1 974 z "},"í":{"ha":299,"x_min":82,"x_max":300,"o":"m 118 0 l 118 715 l 181 715 l 181 0 l 118 0 m 82 829 l 254 1019 l 300 974 l 119 793 l 82 829 z "},"î":{"ha":299,"x_min":-26,"x_max":325,"o":"m 118 0 l 118 715 l 181 715 l 181 0 l 118 0 m -26 850 l 149 1021 l 325 850 l 288 810 l 149 942 l 11 810 l -26 850 z "},"ï":{"ha":299,"x_min":-6,"x_max":303,"o":"m 118 0 l 118 715 l 181 715 l 181 0 l 118 0 m -6 861 l -6 953 l 71 953 l 71 861 l -6 861 m 226 861 l 226 953 l 303 953 l 303 861 l 226 861 z "},"ð":{"ha":804,"x_min":107,"x_max":697,"o":"m 107 199 l 107 426 q 306 625 107 625 l 606 625 l 481 822 l 329 750 l 308 794 l 454 864 l 369 997 l 421 1031 l 510 892 l 672 968 l 693 922 l 538 847 l 678 622 q 697 539 697 592 l 697 199 q 500 0 697 0 l 306 0 q 107 199 107 0 m 169 185 q 299 56 169 56 l 506 56 q 635 185 635 56 l 635 569 l 299 569 q 169 440 169 569 l 169 185 z "},"ñ":{"ha":807,"x_min":118,"x_max":694,"o":"m 118 0 l 118 715 l 497 715 q 694 517 694 715 l 694 0 l 632 0 l 632 531 q 503 660 632 660 l 181 660 l 181 0 l 118 0 m 210 875 l 272 938 q 342 969 306 969 q 408 938 378 969 l 442 904 q 472 888 458 888 q 503 904 486 888 l 565 967 l 603 929 l 540 867 q 472 835 508 835 q 404 867 436 835 l 371 900 q 342 917 356 917 q 310 900 328 917 l 247 838 l 210 875 z "},"ò":{"ha":804,"x_min":107,"x_max":697,"o":"m 107 199 l 107 517 q 306 715 107 715 l 500 715 q 697 517 697 715 l 697 199 q 500 0 697 0 l 306 0 q 107 199 107 0 m 169 185 q 299 56 169 56 l 506 56 q 635 185 635 56 l 635 531 q 506 660 635 660 l 299 660 q 169 531 169 660 l 169 185 m 251 974 l 297 1019 l 469 829 l 431 792 l 251 974 z "},"ó":{"ha":804,"x_min":107,"x_max":697,"o":"m 107 199 l 107 517 q 306 715 107 715 l 500 715 q 697 517 697 715 l 697 199 q 500 0 697 0 l 306 0 q 107 199 107 0 m 169 185 q 299 56 169 56 l 506 56 q 635 185 635 56 l 635 531 q 506 660 635 660 l 299 660 q 169 531 169 660 l 169 185 m 335 829 l 507 1019 l 553 974 l 372 793 l 335 829 z "},"ô":{"ha":804,"x_min":107,"x_max":697,"o":"m 107 199 l 107 517 q 306 715 107 715 l 500 715 q 697 517 697 715 l 697 199 q 500 0 697 0 l 306 0 q 107 199 107 0 m 169 185 q 299 56 169 56 l 506 56 q 635 185 635 56 l 635 531 q 506 660 635 660 l 299 660 q 169 531 169 660 l 169 185 m 226 850 l 401 1021 l 578 850 l 540 810 l 401 942 l 264 810 l 226 850 z "},"õ":{"ha":804,"x_min":107,"x_max":697,"o":"m 107 199 l 107 517 q 306 715 107 715 l 500 715 q 697 517 697 715 l 697 199 q 500 0 697 0 l 306 0 q 107 199 107 0 m 169 185 q 299 56 169 56 l 506 56 q 635 185 635 56 l 635 531 q 506 660 635 660 l 299 660 q 169 531 169 660 l 169 185 m 206 875 l 268 938 q 338 969 301 969 q 404 938 374 969 l 438 904 q 468 888 454 888 q 499 904 482 888 l 561 967 l 599 929 l 536 867 q 468 835 504 835 q 400 867 432 835 l 367 900 q 338 917 351 917 q 306 900 324 917 l 243 838 l 206 875 z "},"ö":{"ha":804,"x_min":107,"x_max":697,"o":"m 107 199 l 107 517 q 306 715 107 715 l 500 715 q 697 517 697 715 l 697 199 q 500 0 697 0 l 306 0 q 107 199 107 0 m 169 185 q 299 56 169 56 l 506 56 q 635 185 635 56 l 635 531 q 506 660 635 660 l 299 660 q 169 531 169 660 l 169 185 m 247 861 l 247 953 l 324 953 l 324 861 l 247 861 m 479 861 l 479 953 l 556 953 l 556 861 l 479 861 z "},"ø":{"ha":804,"x_min":107,"x_max":697,"o":"m 107 199 l 107 517 q 306 715 107 715 l 500 715 q 697 517 697 715 l 697 199 q 500 0 697 0 l 306 0 q 107 199 107 0 m 169 185 l 625 592 q 506 660 599 660 l 299 660 q 169 531 169 660 l 169 185 m 179 124 q 299 56 206 56 l 506 56 q 635 185 635 56 l 635 531 l 179 124 z "},"ù":{"ha":807,"x_min":113,"x_max":689,"o":"m 113 199 l 113 715 l 175 715 l 175 185 q 304 56 175 56 l 626 56 l 626 715 l 689 715 l 689 0 l 311 0 q 113 199 113 0 m 250 974 l 296 1019 l 468 829 l 429 792 l 250 974 z "},"ú":{"ha":807,"x_min":113,"x_max":689,"o":"m 113 199 l 113 715 l 175 715 l 175 185 q 304 56 175 56 l 626 56 l 626 715 l 689 715 l 689 0 l 311 0 q 113 199 113 0 m 333 829 l 506 1019 l 551 974 l 371 793 l 333 829 z "},"û":{"ha":807,"x_min":113,"x_max":689,"o":"m 113 199 l 113 715 l 175 715 l 175 185 q 304 56 175 56 l 626 56 l 626 715 l 689 715 l 689 0 l 311 0 q 113 199 113 0 m 225 850 l 400 1021 l 576 850 l 539 810 l 400 942 l 263 810 l 225 850 z "},"ü":{"ha":807,"x_min":113,"x_max":689,"o":"m 113 199 l 113 715 l 175 715 l 175 185 q 304 56 175 56 l 626 56 l 626 715 l 689 715 l 689 0 l 311 0 q 113 199 113 0 m 246 861 l 246 953 l 322 953 l 322 861 l 246 861 m 478 861 l 478 953 l 554 953 l 554 861 l 478 861 z "},"ý":{"ha":692,"x_min":29,"x_max":663,"o":"m 29 701 l 38 715 l 92 715 l 328 56 l 364 56 l 600 715 l 654 715 l 663 701 l 304 -278 l 250 -278 l 242 -264 l 342 0 l 286 0 l 29 701 m 279 829 l 451 1019 l 497 974 l 317 793 l 279 829 z "},"þ":{"ha":801,"x_min":118,"x_max":694,"o":"m 118 -278 l 118 1028 l 181 1028 l 181 715 l 497 715 q 694 517 694 715 l 694 199 q 497 0 694 0 l 181 0 l 181 -278 l 118 -278 m 181 56 l 503 56 q 632 185 632 56 l 632 531 q 503 660 632 660 l 181 660 l 181 56 z "},"ÿ":{"ha":692,"x_min":29,"x_max":663,"o":"m 29 701 l 38 715 l 92 715 l 328 56 l 364 56 l 600 715 l 654 715 l 663 701 l 304 -278 l 250 -278 l 242 -264 l 342 0 l 286 0 l 29 701 m 192 861 l 192 953 l 268 953 l 268 861 l 192 861 m 424 861 l 424 953 l 500 953 l 500 861 l 424 861 z "},"ā":{"ha":746,"x_min":79,"x_max":633,"o":"m 279 0 q 79 203 79 0 q 279 406 79 406 l 571 406 l 571 531 q 442 660 571 660 l 143 660 l 143 686 l 182 715 l 436 715 q 633 517 633 715 l 633 0 l 279 0 m 142 185 q 271 56 142 56 l 571 56 l 571 350 l 271 350 q 142 221 142 350 l 142 185 m 207 874 l 207 936 l 542 936 l 542 874 l 207 874 z "},"ă":{"ha":746,"x_min":79,"x_max":633,"o":"m 279 0 q 79 203 79 0 q 279 406 79 406 l 571 406 l 571 531 q 442 660 571 660 l 143 660 l 143 686 l 182 715 l 436 715 q 633 517 633 715 l 633 0 l 279 0 m 142 185 q 271 56 142 56 l 571 56 l 571 350 l 271 350 q 142 221 142 350 l 142 185 m 211 921 l 211 996 l 265 996 l 265 919 q 299 886 265 886 l 450 886 q 483 919 483 886 l 483 996 l 538 996 l 538 921 q 447 832 538 832 l 300 832 q 211 921 211 832 z "},"ą":{"ha":746,"x_min":79,"x_max":633,"o":"m 279 0 q 79 203 79 0 q 279 406 79 406 l 571 406 l 571 531 q 442 660 571 660 l 143 660 l 143 686 l 182 715 l 436 715 q 633 517 633 715 l 633 0 l 279 0 m 142 185 q 271 56 142 56 l 571 56 l 571 350 l 271 350 q 142 221 142 350 l 142 185 m 388 -71 q 507 49 388 49 l 544 49 l 544 0 l 501 0 q 440 -61 440 0 l 440 -135 q 501 -196 440 -196 l 633 -196 l 633 -221 l 601 -244 l 507 -244 q 388 -125 388 -244 l 388 -71 z "},"ć":{"ha":689,"x_min":107,"x_max":625,"o":"m 107 199 l 107 517 q 306 715 107 715 l 586 715 l 625 686 l 625 660 l 299 660 q 169 531 169 660 l 169 185 q 299 56 169 56 l 625 56 l 625 29 l 586 0 l 306 0 q 107 199 107 0 m 324 829 l 496 1019 l 542 974 l 361 793 l 324 829 z "},"č":{"ha":689,"x_min":107,"x_max":625,"o":"m 107 199 l 107 517 q 306 715 107 715 l 586 715 l 625 686 l 625 660 l 299 660 q 169 531 169 660 l 169 185 q 299 56 169 56 l 625 56 l 625 29 l 586 0 l 306 0 q 107 199 107 0 m 215 968 l 253 1007 l 390 876 l 529 1007 l 567 968 l 390 796 l 215 968 z "},"ď":{"ha":831,"x_min":107,"x_max":867,"o":"m 107 199 l 107 517 q 306 715 107 715 l 621 715 l 621 1028 l 683 1028 l 683 0 l 306 0 q 107 199 107 0 m 169 185 q 299 56 169 56 l 621 56 l 621 660 l 299 660 q 169 531 169 660 l 169 185 m 753 829 l 799 1049 l 858 1049 l 867 1035 l 794 819 l 753 829 z "},"đ":{"ha":801,"x_min":107,"x_max":783,"o":"m 107 199 l 107 517 q 306 715 107 715 l 621 715 l 621 844 l 343 844 l 343 899 l 621 899 l 621 1028 l 683 1028 l 683 899 l 783 899 l 783 844 l 683 844 l 683 0 l 306 0 q 107 199 107 0 m 169 185 q 299 56 169 56 l 621 56 l 621 660 l 299 660 q 169 531 169 660 l 169 185 z "},"ē":{"ha":790,"x_min":107,"x_max":683,"o":"m 107 199 l 107 517 q 306 715 107 715 l 486 715 q 683 517 683 715 l 683 332 l 169 332 l 169 185 q 299 56 169 56 l 656 56 l 656 29 l 617 0 l 306 0 q 107 199 107 0 m 169 388 l 621 388 l 621 531 q 492 660 621 660 l 299 660 q 169 531 169 660 l 169 388 m 228 874 l 228 936 l 563 936 l 563 874 l 228 874 z "},"ė":{"ha":790,"x_min":107,"x_max":683,"o":"m 107 199 l 107 517 q 306 715 107 715 l 486 715 q 683 517 683 715 l 683 332 l 169 332 l 169 185 q 299 56 169 56 l 656 56 l 656 29 l 617 0 l 306 0 q 107 199 107 0 m 169 388 l 621 388 l 621 531 q 492 660 621 660 l 299 660 q 169 531 169 660 l 169 388 m 357 858 l 357 954 l 433 954 l 433 858 l 357 858 z "},"ę":{"ha":790,"x_min":107,"x_max":683,"o":"m 107 199 l 107 517 q 306 715 107 715 l 486 715 q 683 517 683 715 l 683 332 l 169 332 l 169 185 q 299 56 169 56 l 656 56 l 656 29 l 617 0 l 306 0 q 107 199 107 0 m 169 388 l 621 388 l 621 531 q 492 660 621 660 l 299 660 q 169 531 169 660 l 169 388 m 396 -71 q 515 49 396 49 l 553 49 l 553 0 l 510 0 q 449 -61 449 0 l 449 -135 q 510 -196 449 -196 l 642 -196 l 642 -221 l 610 -244 l 515 -244 q 396 -125 396 -244 l 396 -71 z "},"ě":{"ha":790,"x_min":107,"x_max":683,"o":"m 107 199 l 107 517 q 306 715 107 715 l 486 715 q 683 517 683 715 l 683 332 l 169 332 l 169 185 q 299 56 169 56 l 656 56 l 656 29 l 617 0 l 306 0 q 107 199 107 0 m 169 388 l 621 388 l 621 531 q 492 660 621 660 l 299 660 q 169 531 169 660 l 169 388 m 219 968 l 257 1007 l 394 876 l 533 1007 l 571 968 l 394 796 l 219 968 z "},"ğ":{"ha":808,"x_min":110,"x_max":688,"o":"m 110 199 l 110 517 q 308 715 110 715 l 688 715 l 688 -79 q 489 -278 688 -278 l 200 -278 l 161 -249 l 161 -222 l 496 -222 q 625 -93 625 -222 l 625 0 l 308 0 q 110 199 110 0 m 172 185 q 301 56 172 56 l 625 56 l 625 660 l 301 660 q 172 531 172 660 l 172 185 m 236 921 l 236 996 l 290 996 l 290 919 q 324 886 290 886 l 475 886 q 508 919 508 886 l 508 996 l 563 996 l 563 921 q 472 832 563 832 l 325 832 q 236 921 236 832 z "},"ģ":{"ha":808,"x_min":110,"x_max":688,"o":"m 110 199 l 110 517 q 308 715 110 715 l 688 715 l 688 -79 q 489 -278 688 -278 l 200 -278 l 161 -249 l 161 -222 l 496 -222 q 625 -93 625 -222 l 625 0 l 308 0 q 110 199 110 0 m 172 185 q 301 56 172 56 l 625 56 l 625 660 l 301 660 q 172 531 172 660 l 172 185 m 369 832 l 447 1022 l 494 1008 l 449 818 l 378 818 l 369 832 z "},"ī":{"ha":299,"x_min":-18,"x_max":317,"o":"m 118 0 l 118 715 l 181 715 l 181 0 l 118 0 m -18 874 l -18 936 l 317 936 l 317 874 l -18 874 z "},"į":{"ha":299,"x_min":-6,"x_max":240,"o":"m 111 858 l 111 954 l 188 954 l 188 858 l 111 858 m 118 0 l 118 715 l 181 715 l 181 0 l 118 0 m -6 -71 q 114 49 -6 49 l 151 49 l 151 0 l 108 0 q 47 -61 47 0 l 47 -135 q 108 -196 47 -196 l 240 -196 l 240 -221 l 208 -244 l 114 -244 q -6 -125 -6 -244 l -6 -71 z "},"ı":{"ha":299,"x_min":118,"x_max":181,"o":"m 118 0 l 118 715 l 181 715 l 181 0 l 118 0 z "},"ķ":{"ha":690,"x_min":118,"x_max":650,"o":"m 118 0 l 118 1028 l 181 1028 l 181 293 l 564 715 l 624 715 l 631 701 l 369 414 l 650 14 l 643 0 l 582 0 l 328 368 l 181 210 l 181 0 l 118 0 m 276 -260 l 328 -69 l 392 -69 l 400 -83 l 326 -274 l 276 -260 z "},"ĺ":{"ha":319,"x_min":76,"x_max":294,"o":"m 113 156 l 113 1028 l 175 1028 l 175 150 q 278 44 175 47 l 278 -10 q 113 156 113 -10 m 76 1139 l 249 1329 l 294 1283 l 114 1103 l 76 1139 z "},"ļ":{"ha":319,"x_min":113,"x_max":278,"o":"m 113 156 l 113 1028 l 175 1028 l 175 150 q 278 44 175 47 l 278 -10 q 113 156 113 -10 m 114 -260 l 165 -69 l 229 -69 l 238 -83 l 164 -274 l 114 -260 z "},"ľ":{"ha":343,"x_min":113,"x_max":358,"o":"m 113 156 l 113 1028 l 175 1028 l 175 150 q 278 44 175 47 l 278 -10 q 113 156 113 -10 m 244 829 l 290 1049 l 350 1049 l 358 1035 l 286 819 l 244 829 z "},"ł":{"ha":335,"x_min":11,"x_max":319,"o":"m 11 454 l 119 517 l 119 1028 l 182 1028 l 182 553 l 294 618 l 319 574 l 182 496 l 182 150 q 285 44 182 47 l 285 -10 q 119 156 119 -10 l 119 460 l 38 410 l 11 454 z "},"ń":{"ha":807,"x_min":118,"x_max":694,"o":"m 118 0 l 118 715 l 497 715 q 694 517 694 715 l 694 0 l 632 0 l 632 531 q 503 660 632 660 l 181 660 l 181 0 l 118 0 m 339 829 l 511 1019 l 557 974 l 376 793 l 339 829 z "},"ņ":{"ha":807,"x_min":118,"x_max":694,"o":"m 118 0 l 118 715 l 497 715 q 694 517 694 715 l 694 0 l 632 0 l 632 531 q 503 660 632 660 l 181 660 l 181 0 l 118 0 m 324 -260 l 375 -69 l 439 -69 l 447 -83 l 374 -274 l 324 -260 z "},"ň":{"ha":807,"x_min":118,"x_max":694,"o":"m 118 0 l 118 715 l 497 715 q 694 517 694 715 l 694 0 l 632 0 l 632 531 q 503 660 632 660 l 181 660 l 181 0 l 118 0 m 231 968 l 268 1007 l 406 876 l 544 1007 l 582 968 l 406 796 l 231 968 z "},"ō":{"ha":804,"x_min":107,"x_max":697,"o":"m 107 199 l 107 517 q 306 715 107 715 l 500 715 q 697 517 697 715 l 697 199 q 500 0 697 0 l 306 0 q 107 199 107 0 m 169 185 q 299 56 169 56 l 506 56 q 635 185 635 56 l 635 531 q 506 660 635 660 l 299 660 q 169 531 169 660 l 169 185 m 235 874 l 235 936 l 569 936 l 569 874 l 235 874 z "},"ő":{"ha":804,"x_min":107,"x_max":697,"o":"m 107 199 l 107 517 q 306 715 107 715 l 500 715 q 697 517 697 715 l 697 199 q 500 0 697 0 l 306 0 q 107 199 107 0 m 169 185 q 299 56 169 56 l 506 56 q 635 185 635 56 l 635 531 q 506 660 635 660 l 299 660 q 169 531 169 660 l 169 185 m 254 828 l 407 1021 l 458 975 l 293 792 l 254 828 m 467 828 l 619 1021 l 671 975 l 506 792 l 467 828 z "},"œ":{"ha":1275,"x_min":107,"x_max":1168,"o":"m 107 199 l 107 517 q 306 715 107 715 l 478 715 q 644 643 596 715 q 811 715 693 715 l 969 715 q 1168 517 1168 715 l 1168 332 l 675 332 l 675 185 q 804 56 675 56 l 1140 56 l 1140 29 l 1101 0 l 811 0 q 644 72 693 0 q 478 0 596 0 l 306 0 q 107 199 107 0 m 169 185 q 299 56 169 56 l 483 56 q 613 185 613 56 l 613 531 q 483 660 613 660 l 299 660 q 169 531 169 660 l 169 185 m 675 388 l 1106 388 l 1106 531 q 976 660 1106 660 l 804 660 q 675 531 675 660 l 675 388 z "},"ŕ":{"ha":490,"x_min":113,"x_max":454,"o":"m 113 0 l 113 639 q 283 715 160 715 l 415 715 l 454 686 l 454 660 l 276 660 q 175 622 207 660 l 175 0 l 113 0 m 211 829 l 383 1019 l 429 974 l 249 793 l 211 829 z "},"ŗ":{"ha":490,"x_min":75,"x_max":454,"o":"m 113 0 l 113 639 q 283 715 160 715 l 415 715 l 454 686 l 454 660 l 276 660 q 175 622 207 660 l 175 0 l 113 0 m 75 -260 l 126 -69 l 190 -69 l 199 -83 l 125 -274 l 75 -260 z "},"ř":{"ha":490,"x_min":103,"x_max":454,"o":"m 113 0 l 113 639 q 283 715 160 715 l 415 715 l 454 686 l 454 660 l 276 660 q 175 622 207 660 l 175 0 l 113 0 m 103 968 l 140 1007 l 278 876 l 417 1007 l 454 968 l 278 796 l 103 968 z "},"ś":{"ha":688,"x_min":88,"x_max":600,"o":"m 88 29 l 88 56 l 410 56 q 536 179 536 56 q 436 321 536 304 l 261 350 q 88 531 88 379 q 288 715 88 715 l 528 715 l 567 686 l 567 660 l 278 660 q 150 536 150 660 q 256 411 150 429 l 431 382 q 600 186 600 354 q 399 0 600 0 l 126 0 l 88 29 m 276 829 l 449 1019 l 494 974 l 314 793 l 276 829 z "},"ş":{"ha":688,"x_min":88,"x_max":600,"o":"m 88 29 l 88 56 l 410 56 q 536 179 536 56 q 436 321 536 304 l 261 350 q 88 531 88 379 q 288 715 88 715 l 528 715 l 567 686 l 567 660 l 278 660 q 150 536 150 660 q 256 411 150 429 l 431 382 q 600 186 600 354 q 399 0 600 0 l 126 0 l 88 29 m 193 -196 l 326 -196 q 390 -132 390 -196 l 390 28 l 444 28 l 444 -125 q 325 -244 444 -244 l 225 -244 l 193 -221 l 193 -196 z "},"š":{"ha":688,"x_min":88,"x_max":600,"o":"m 88 29 l 88 56 l 410 56 q 536 179 536 56 q 436 321 536 304 l 261 350 q 88 531 88 379 q 288 715 88 715 l 528 715 l 567 686 l 567 660 l 278 660 q 150 536 150 660 q 256 411 150 429 l 431 382 q 600 186 600 354 q 399 0 600 0 l 126 0 l 88 29 m 168 968 l 206 1007 l 343 876 l 482 1007 l 519 968 l 343 796 l 168 968 z "},"ţ":{"ha":518,"x_min":113,"x_max":468,"o":"m 113 199 l 113 958 l 175 958 l 175 715 l 454 715 l 454 660 l 175 660 l 175 185 q 304 56 175 56 l 468 56 l 468 29 l 429 0 l 311 0 q 113 199 113 0 m 149 -196 l 282 -196 q 346 -132 346 -196 l 346 28 l 400 28 l 400 -125 q 281 -244 400 -244 l 181 -244 l 149 -221 l 149 -196 z "},"ť":{"ha":518,"x_min":113,"x_max":468,"o":"m 113 199 l 113 958 l 175 958 l 175 715 l 454 715 l 454 660 l 175 660 l 175 185 q 304 56 175 56 l 468 56 l 468 29 l 429 0 l 311 0 q 113 199 113 0 m 289 835 l 335 1054 l 394 1054 l 403 1040 l 331 825 l 289 835 z "},"ū":{"ha":807,"x_min":113,"x_max":689,"o":"m 113 199 l 113 715 l 175 715 l 175 185 q 304 56 175 56 l 626 56 l 626 715 l 689 715 l 689 0 l 311 0 q 113 199 113 0 m 233 874 l 233 936 l 568 936 l 568 874 l 233 874 z "},"ů":{"ha":807,"x_min":113,"x_max":689,"o":"m 113 199 l 113 715 l 175 715 l 175 185 q 304 56 175 56 l 626 56 l 626 715 l 689 715 l 689 0 l 311 0 q 113 199 113 0 m 271 885 l 271 964 q 358 1051 271 1051 l 443 1051 q 531 964 531 1051 l 531 885 q 443 797 531 797 l 358 797 q 271 885 271 797 m 321 881 q 358 843 321 843 l 442 843 q 481 881 481 843 l 481 968 q 442 1006 481 1006 l 358 1006 q 321 968 321 1006 l 321 881 z "},"ű":{"ha":807,"x_min":113,"x_max":689,"o":"m 113 199 l 113 715 l 175 715 l 175 185 q 304 56 175 56 l 626 56 l 626 715 l 689 715 l 689 0 l 311 0 q 113 199 113 0 m 253 828 l 406 1021 l 457 975 l 292 792 l 253 828 m 465 828 l 618 1021 l 669 975 l 504 792 l 465 828 z "},"ų":{"ha":807,"x_min":113,"x_max":689,"o":"m 113 199 l 113 715 l 175 715 l 175 185 q 304 56 175 56 l 626 56 l 626 715 l 689 715 l 689 0 l 311 0 q 113 199 113 0 m 443 -71 q 563 49 443 49 l 600 49 l 600 0 l 557 0 q 496 -61 496 0 l 496 -135 q 557 -196 496 -196 l 689 -196 l 689 -221 l 657 -244 l 563 -244 q 443 -125 443 -244 l 443 -71 z "},"ź":{"ha":701,"x_min":76,"x_max":625,"o":"m 76 0 l 76 51 l 535 660 l 90 660 l 90 715 l 611 715 l 611 664 l 153 56 l 625 56 l 625 0 l 76 0 m 283 829 l 456 1019 l 501 974 l 321 793 l 283 829 z "},"ż":{"ha":701,"x_min":76,"x_max":625,"o":"m 76 0 l 76 51 l 535 660 l 90 660 l 90 715 l 611 715 l 611 664 l 153 56 l 625 56 l 625 0 l 76 0 m 313 858 l 313 954 l 389 954 l 389 858 l 313 858 z "},"ž":{"ha":701,"x_min":76,"x_max":625,"o":"m 76 0 l 76 51 l 535 660 l 90 660 l 90 715 l 611 715 l 611 664 l 153 56 l 625 56 l 625 0 l 76 0 m 175 968 l 213 1007 l 350 876 l 489 1007 l 526 968 l 350 796 l 175 968 z "},"ƒ":{"ha":785,"x_min":56,"x_max":626,"o":"m 56 -121 l 142 -121 q 271 8 271 -121 l 271 829 q 469 1028 271 1028 l 588 1028 l 626 999 l 626 972 l 463 972 q 333 843 333 972 l 333 715 l 613 715 l 613 660 l 333 660 l 333 22 q 135 -176 333 -176 l 94 -176 l 56 -147 l 56 -121 z "},"ș":{"ha":688,"x_min":88,"x_max":600,"o":"m 88 29 l 88 56 l 410 56 q 536 179 536 56 q 436 321 536 304 l 261 350 q 88 531 88 379 q 288 715 88 715 l 528 715 l 567 686 l 567 660 l 278 660 q 150 536 150 660 q 256 411 150 429 l 431 382 q 600 186 600 354 q 399 0 600 0 l 126 0 l 88 29 m 261 -260 l 313 -69 l 376 -69 l 385 -83 l 311 -274 l 261 -260 z "},"ț":{"ha":518,"x_min":113,"x_max":468,"o":"m 113 199 l 113 958 l 175 958 l 175 715 l 454 715 l 454 660 l 175 660 l 175 185 q 304 56 175 56 l 468 56 l 468 29 l 429 0 l 311 0 q 113 199 113 0 m 217 -260 l 268 -69 l 332 -69 l 340 -83 l 267 -274 l 217 -260 z "},"ȷ":{"ha":299,"x_min":-10,"x_max":181,"o":"m -10 -233 q 118 -103 118 -231 l 118 715 l 181 715 l 181 -97 q -10 -287 181 -287 l -10 -233 z "},"ﬁ":{"ha":800,"x_min":118,"x_max":689,"o":"m 118 0 l 118 829 q 317 1028 118 1028 l 435 1028 l 474 999 l 474 972 l 310 972 q 181 843 181 972 l 181 715 l 460 715 l 460 660 l 181 660 l 181 0 l 118 0 m 613 858 l 613 954 l 689 954 l 689 858 l 613 858 m 619 0 l 619 715 l 682 715 l 682 0 l 619 0 z "},"ﬂ":{"ha":821,"x_min":118,"x_max":779,"o":"m 118 0 l 118 829 q 317 1028 118 1028 l 435 1028 l 474 999 l 474 972 l 310 972 q 181 843 181 972 l 181 715 l 460 715 l 460 660 l 181 660 l 181 0 l 118 0 m 614 156 l 614 1028 l 676 1028 l 676 150 q 779 44 676 47 l 779 -10 q 614 156 614 -10 z "},"π":{"ha":813,"x_min":118,"x_max":694,"o":"m 118 0 l 118 715 l 694 715 l 694 0 l 632 0 l 632 660 l 181 660 l 181 0 l 118 0 z "},"ˆ":{"ha":694,"x_min":172,"x_max":524,"o":"m 172 850 l 347 1021 l 524 850 l 486 810 l 347 942 l 210 810 l 172 850 z "},"ˇ":{"ha":694,"x_min":172,"x_max":524,"o":"m 172 968 l 210 1007 l 347 876 l 486 1007 l 524 968 l 347 796 l 172 968 z "},"ˉ":{"ha":694,"x_min":181,"x_max":515,"o":"m 181 874 l 181 936 l 515 936 l 515 874 l 181 874 z "},"ª":{"ha":553,"x_min":61,"x_max":478,"o":"m 61 539 l 61 610 q 181 729 61 729 l 425 729 l 425 847 q 361 911 425 911 l 96 911 l 96 933 l 128 958 l 358 958 q 478 839 478 958 l 478 419 l 181 419 q 61 539 61 419 m 113 531 q 176 467 113 467 l 425 467 l 425 682 l 176 682 q 113 618 113 682 l 113 531 z "},"º":{"ha":594,"x_min":75,"x_max":519,"o":"m 75 539 l 75 839 q 194 958 75 958 l 400 958 q 519 839 519 958 l 519 539 q 400 419 519 419 l 194 419 q 75 539 75 419 m 126 531 q 190 467 126 467 l 403 467 q 467 531 467 467 l 467 847 q 403 911 467 911 l 190 911 q 126 847 126 911 l 126 531 z "},"̀":{"ha":0,"x_min":-544,"x_max":-326,"o":"m -544 974 l -499 1019 l -326 829 l -365 792 l -544 974 z "},"́":{"ha":0,"x_min":-461,"x_max":-243,"o":"m -461 829 l -289 1019 l -243 974 l -424 793 l -461 829 z "},"̂":{"ha":0,"x_min":-569,"x_max":-218,"o":"m -569 850 l -394 1021 l -218 850 l -256 810 l -394 942 l -532 810 l -569 850 z "},"̃":{"ha":0,"x_min":-590,"x_max":-197,"o":"m -590 875 l -528 938 q -458 969 -494 969 q -392 938 -422 969 l -358 904 q -328 888 -342 888 q -297 904 -314 888 l -235 967 l -197 929 l -260 867 q -328 835 -292 835 q -396 867 -364 835 l -429 900 q -458 917 -444 917 q -490 900 -472 917 l -553 838 l -590 875 z "},"̄":{"ha":0,"x_min":-561,"x_max":-226,"o":"m -561 874 l -561 936 l -226 936 l -226 874 l -561 874 z "},"̆":{"ha":0,"x_min":-557,"x_max":-231,"o":"m -557 921 l -557 996 l -503 996 l -503 919 q -469 886 -503 886 l -318 886 q -285 919 -285 886 l -285 996 l -231 996 l -231 921 q -321 832 -231 832 l -468 832 q -557 921 -557 832 z "},"̇":{"ha":0,"x_min":-432,"x_max":-356,"o":"m -432 858 l -432 954 l -356 954 l -356 858 l -432 858 z "},"̈":{"ha":0,"x_min":-549,"x_max":-240,"o":"m -549 861 l -549 953 l -472 953 l -472 861 l -549 861 m -317 861 l -317 953 l -240 953 l -240 861 l -317 861 z "},"̊":{"ha":0,"x_min":-524,"x_max":-264,"o":"m -524 885 l -524 964 q -436 1051 -524 1051 l -351 1051 q -264 964 -264 1051 l -264 885 q -351 797 -264 797 l -436 797 q -524 885 -524 797 m -474 881 q -436 843 -474 843 l -353 843 q -314 881 -314 843 l -314 968 q -353 1006 -314 1006 l -436 1006 q -474 968 -474 1006 l -474 881 z "},"̋":{"ha":0,"x_min":-542,"x_max":-125,"o":"m -542 828 l -389 1021 l -337 975 l -503 792 l -542 828 m -329 828 l -176 1021 l -125 975 l -290 792 l -329 828 z "},"̌":{"ha":0,"x_min":-569,"x_max":-218,"o":"m -569 968 l -532 1007 l -394 876 l -256 1007 l -218 968 l -394 796 l -569 968 z "},"̦":{"ha":0,"x_min":-476,"x_max":-353,"o":"m -476 -260 l -425 -69 l -361 -69 l -353 -83 l -426 -274 l -476 -260 z "},"̧":{"ha":0,"x_min":-544,"x_max":-293,"o":"m -544 -196 l -411 -196 q -347 -132 -347 -196 l -347 28 l -293 28 l -293 -125 q -412 -244 -293 -244 l -512 -244 l -544 -221 l -544 -196 z "},"̨":{"ha":0,"x_min":-478,"x_max":-232,"o":"m -478 -71 q -358 49 -478 49 l -321 49 l -321 0 l -364 0 q -425 -61 -425 0 l -425 -135 q -364 -196 -425 -196 l -232 -196 l -232 -221 l -264 -244 l -358 -244 q -478 -125 -478 -244 l -478 -71 z "},"²":{"ha":494,"x_min":61,"x_max":435,"o":"m 61 394 l 61 556 q 153 676 61 658 l 326 711 q 382 776 382 722 l 382 847 q 318 911 382 911 l 78 911 l 78 933 l 110 958 l 315 958 q 435 839 435 958 l 435 788 q 343 665 435 683 l 169 631 q 113 565 113 619 l 113 442 l 435 442 l 435 394 l 61 394 z "},"³":{"ha":494,"x_min":69,"x_max":435,"o":"m 69 418 l 69 442 l 318 442 q 382 506 382 442 l 382 600 q 318 664 382 664 l 131 664 l 131 711 l 318 711 q 382 775 382 711 l 382 847 q 318 911 382 911 l 78 911 l 78 933 l 110 958 l 315 958 q 435 839 435 958 l 435 785 q 411 724 435 747 l 379 692 l 411 660 q 435 599 435 636 l 435 513 q 315 394 435 394 l 101 394 l 69 418 z "},"¹":{"ha":494,"x_min":86,"x_max":426,"o":"m 86 394 l 86 442 l 236 442 l 236 911 l 119 911 l 119 933 l 151 958 l 289 958 l 289 442 l 426 442 l 426 394 l 86 394 z "},"¼":{"ha":1146,"x_min":86,"x_max":1086,"o":"m 86 394 l 86 442 l 236 442 l 236 911 l 119 911 l 119 933 l 151 958 l 289 958 l 289 442 l 426 442 l 426 394 l 86 394 m 361 33 l 819 950 l 869 925 l 411 8 l 361 33 z "},"½":{"ha":1217,"x_min":86,"x_max":1157,"o":"m 86 394 l 86 442 l 236 442 l 236 911 l 119 911 l 119 933 l 151 958 l 289 958 l 289 442 l 426 442 l 426 394 l 86 394 m 361 33 l 819 950 l 869 925 l 411 8 l 361 33 z "},"¾":{"ha":1119,"x_min":69,"x_max":1058,"o":"m 69 418 l 69 442 l 318 442 q 382 506 382 442 l 382 600 q 318 664 382 664 l 131 664 l 131 711 l 318 711 q 382 775 382 711 l 382 847 q 318 911 382 911 l 78 911 l 78 933 l 110 958 l 315 958 q 435 839 435 958 l 435 785 q 411 724 435 747 l 379 692 l 411 660 q 435 599 435 636 l 435 513 q 315 394 435 394 l 101 394 l 69 418 m 333 33 l 792 950 l 842 925 l 383 8 l 333 33 z "},"⁰":{"ha":494,"x_min":61,"x_max":435,"o":"m 61 514 l 61 839 q 181 958 61 958 l 315 958 q 435 839 435 958 l 435 514 q 315 394 435 394 l 181 394 q 61 514 61 394 m 113 506 q 176 442 113 442 l 318 442 q 382 506 382 442 l 382 847 q 318 911 382 911 l 176 911 q 113 847 113 911 l 113 506 z "},"⁴":{"ha":494,"x_min":61,"x_max":435,"o":"m 61 511 l 61 553 l 257 958 l 301 958 l 310 944 l 124 558 l 382 558 l 382 764 l 435 764 l 435 394 l 382 394 l 382 511 l 61 511 z "},"₀":{"ha":494,"x_min":61,"x_max":435,"o":"m 61 119 l 61 444 q 181 564 61 564 l 315 564 q 435 444 435 564 l 435 119 q 315 0 435 0 l 181 0 q 61 119 61 0 m 113 111 q 176 47 113 47 l 318 47 q 382 111 382 47 l 382 453 q 318 517 382 517 l 176 517 q 113 453 113 517 l 113 111 z "},"₁":{"ha":494,"x_min":86,"x_max":426,"o":"m 86 0 l 86 47 l 236 47 l 236 517 l 119 517 l 119 539 l 151 564 l 289 564 l 289 47 l 426 47 l 426 0 l 86 0 z "},"₂":{"ha":494,"x_min":61,"x_max":435,"o":"m 61 0 l 61 161 q 153 282 61 264 l 326 317 q 382 382 382 328 l 382 453 q 318 517 382 517 l 78 517 l 78 539 l 110 564 l 315 564 q 435 444 435 564 l 435 393 q 343 271 435 289 l 169 236 q 113 171 113 225 l 113 47 l 435 47 l 435 0 l 61 0 z "},"₃":{"ha":494,"x_min":69,"x_max":435,"o":"m 69 24 l 69 47 l 318 47 q 382 111 382 47 l 382 206 q 318 269 382 269 l 131 269 l 131 317 l 318 317 q 382 381 382 317 l 382 453 q 318 517 382 517 l 78 517 l 78 539 l 110 564 l 315 564 q 435 444 435 564 l 435 390 q 411 329 435 353 l 379 297 l 411 265 q 435 204 435 242 l 435 118 q 315 0 435 0 l 101 0 l 69 24 z "},"₄":{"ha":494,"x_min":61,"x_max":435,"o":"m 61 117 l 61 158 l 257 564 l 301 564 l 310 550 l 124 164 l 382 164 l 382 369 l 435 369 l 435 0 l 382 0 l 382 117 l 61 117 z "},"_":{"ha":806,"x_min":56,"x_max":750,"o":"m 56 -221 l 750 -221 l 750 -278 l 56 -278 l 56 -221 z "},"-":{"ha":483,"x_min":56,"x_max":428,"o":"m 56 394 l 56 453 l 428 453 l 428 394 l 56 394 z "},"–":{"ha":806,"x_min":56,"x_max":750,"o":"m 56 394 l 56 453 l 750 453 l 750 394 l 56 394 z "},"—":{"ha":1389,"x_min":56,"x_max":1333,"o":"m 56 394 l 56 453 l 1333 453 l 1333 394 l 56 394 z "},"(":{"ha":400,"x_min":106,"x_max":369,"o":"m 324 -256 q 106 403 106 36 q 324 1061 106 769 l 369 1025 q 168 403 168 751 q 369 -219 168 54 l 324 -256 z "},"[":{"ha":438,"x_min":132,"x_max":396,"o":"m 132 -250 l 132 1056 l 396 1056 l 396 1000 l 194 1000 l 194 -194 l 396 -194 l 396 -250 l 132 -250 z "},"{":{"ha":494,"x_min":69,"x_max":453,"o":"m 69 390 l 69 424 l 203 557 l 203 857 q 401 1056 203 1056 l 453 1056 l 453 1000 l 394 1000 q 265 871 265 1000 l 265 539 l 131 407 l 265 275 l 265 -65 q 394 -194 265 -194 l 453 -194 l 453 -250 l 401 -250 q 203 -51 203 -250 l 203 257 l 69 390 z "},"‚":{"ha":346,"x_min":53,"x_max":208,"o":"m 53 -175 l 135 119 l 200 119 l 208 106 l 101 -186 l 53 -175 z "},"„":{"ha":563,"x_min":53,"x_max":425,"o":"m 53 -175 l 135 119 l 200 119 l 208 106 l 101 -186 l 53 -175 m 269 -175 l 351 119 l 417 119 l 425 106 l 318 -186 l 269 -175 z "},")":{"ha":400,"x_min":31,"x_max":294,"o":"m 31 -219 q 232 403 232 54 q 31 1025 232 751 l 76 1061 q 294 403 294 769 q 76 -256 294 36 l 31 -219 z "},"]":{"ha":438,"x_min":42,"x_max":306,"o":"m 42 -194 l 243 -194 l 243 1000 l 42 1000 l 42 1056 l 306 1056 l 306 -250 l 42 -250 l 42 -194 z "},"}":{"ha":494,"x_min":42,"x_max":425,"o":"m 42 -194 l 100 -194 q 229 -65 229 -194 l 229 275 l 364 407 l 229 539 l 229 871 q 100 1000 229 1000 l 42 1000 l 42 1056 l 93 1056 q 292 857 292 1056 l 292 557 l 425 424 l 425 390 l 292 257 l 292 -51 q 93 -250 292 -250 l 42 -250 l 42 -194 z "},"«":{"ha":624,"x_min":42,"x_max":568,"o":"m 42 438 l 281 739 l 324 703 l 118 438 l 324 172 l 281 136 l 42 438 m 286 438 l 525 739 l 568 703 l 363 438 l 568 172 l 525 136 l 286 438 z "},"‘":{"ha":346,"x_min":108,"x_max":265,"o":"m 108 742 l 217 1033 l 265 1022 l 183 728 l 117 728 l 108 742 z "},"“":{"ha":563,"x_min":108,"x_max":482,"o":"m 108 742 l 217 1033 l 265 1022 l 183 728 l 117 728 l 108 742 m 325 742 l 433 1033 l 482 1022 l 400 728 l 333 728 l 325 742 z "},"‹":{"ha":379,"x_min":42,"x_max":324,"o":"m 42 438 l 281 739 l 324 703 l 118 438 l 324 172 l 281 136 l 42 438 z "},"»":{"ha":624,"x_min":56,"x_max":582,"o":"m 56 172 l 261 438 l 56 703 l 99 739 l 338 438 l 99 136 l 56 172 m 300 172 l 506 438 l 300 703 l 343 739 l 582 438 l 343 136 l 300 172 z "},"’":{"ha":346,"x_min":97,"x_max":254,"o":"m 97 735 l 179 1028 l 246 1028 l 254 1014 l 146 722 l 97 735 z "},"”":{"ha":563,"x_min":97,"x_max":471,"o":"m 97 735 l 179 1028 l 246 1028 l 254 1014 l 146 722 l 97 735 m 314 735 l 396 1028 l 463 1028 l 471 1014 l 363 722 l 314 735 z "},"›":{"ha":379,"x_min":56,"x_max":338,"o":"m 56 172 l 261 438 l 56 703 l 99 739 l 338 438 l 99 136 l 56 172 z "},"!":{"ha":346,"x_min":128,"x_max":219,"o":"m 128 0 l 128 119 l 219 119 l 219 0 l 128 0 m 140 282 l 140 958 l 207 958 l 207 282 l 140 282 z "},"\"":{"ha":485,"x_min":104,"x_max":382,"o":"m 104 697 l 104 1028 l 165 1028 l 165 697 l 104 697 m 321 697 l 321 1028 l 382 1028 l 382 697 l 321 697 z "},"#":{"ha":924,"x_min":69,"x_max":854,"o":"m 69 283 l 69 342 l 274 342 l 274 617 l 69 617 l 69 675 l 274 675 l 274 958 l 335 958 l 335 675 l 590 675 l 590 958 l 651 958 l 651 675 l 854 675 l 854 617 l 651 617 l 651 342 l 854 342 l 854 283 l 651 283 l 651 0 l 590 0 l 590 283 l 335 283 l 335 0 l 274 0 l 274 283 l 69 283 m 335 342 l 590 342 l 590 617 l 335 617 l 335 342 z "},"%":{"ha":1176,"x_min":61,"x_max":1115,"o":"m 61 514 l 61 839 q 181 958 61 958 l 315 958 q 435 839 435 958 l 435 514 q 315 394 435 394 l 181 394 q 61 514 61 394 m 113 506 q 176 442 113 442 l 318 442 q 382 506 382 442 l 382 847 q 318 911 382 911 l 176 911 q 113 847 113 911 l 113 506 m 333 33 l 792 950 l 842 925 l 383 8 l 333 33 m 742 119 l 742 444 q 861 564 742 564 l 996 564 q 1115 444 1115 564 l 1115 119 q 996 0 1115 0 l 861 0 q 742 119 742 0 m 793 111 q 857 47 793 47 l 999 47 q 1063 111 1063 47 l 1063 453 q 999 517 1063 517 l 857 517 q 793 453 793 517 l 793 111 z "},"&":{"ha":903,"x_min":104,"x_max":847,"o":"m 104 199 l 104 363 q 150 474 104 435 l 208 522 l 160 581 q 132 661 132 614 l 132 760 q 331 958 132 958 l 600 958 l 639 929 l 639 903 l 324 903 q 194 774 194 903 l 194 668 q 324 539 194 539 l 847 539 l 847 483 l 708 483 l 708 0 l 303 0 q 104 199 104 0 m 167 185 q 296 56 167 56 l 646 56 l 646 483 l 296 483 q 167 354 167 483 l 167 185 z "},"'":{"ha":269,"x_min":104,"x_max":165,"o":"m 104 697 l 104 1028 l 165 1028 l 165 697 l 104 697 z "},"*":{"ha":683,"x_min":57,"x_max":626,"o":"m 57 735 l 72 778 l 315 704 l 315 958 l 368 958 l 368 704 l 610 778 l 626 735 l 386 653 l 532 446 l 493 418 l 342 618 l 190 418 l 151 446 l 297 653 l 57 735 z "},",":{"ha":346,"x_min":53,"x_max":207,"o":"m 53 -175 l 128 119 l 199 119 l 207 106 l 104 -186 l 53 -175 z "},".":{"ha":346,"x_min":128,"x_max":219,"o":"m 128 0 l 128 119 l 219 119 l 219 0 l 128 0 z "},"/":{"ha":503,"x_min":28,"x_max":475,"o":"m 28 -42 l 419 1021 l 475 1000 l 85 -62 l 28 -42 z "},":":{"ha":346,"x_min":128,"x_max":219,"o":"m 128 0 l 128 119 l 219 119 l 219 0 l 128 0 m 128 592 l 128 711 l 219 711 l 219 592 l 128 592 z "},";":{"ha":346,"x_min":53,"x_max":219,"o":"m 53 -175 l 128 119 l 199 119 l 207 106 l 104 -186 l 53 -175 m 128 592 l 128 711 l 219 711 l 219 592 l 128 592 z "},"?":{"ha":675,"x_min":56,"x_max":606,"o":"m 56 897 l 56 924 l 100 958 l 406 958 q 606 758 606 958 l 606 628 q 406 428 606 428 l 318 428 l 318 282 l 251 282 l 251 489 l 413 489 q 539 615 539 489 l 539 772 q 413 897 539 897 l 56 897 m 239 0 l 239 119 l 331 119 l 331 0 l 239 0 z "},"@":{"ha":1104,"x_min":132,"x_max":972,"o":"m 132 3 l 132 761 q 328 958 132 958 l 972 958 l 972 83 l 636 83 q 438 282 438 83 l 438 482 q 636 681 438 681 l 911 681 l 911 906 l 325 906 q 193 774 193 906 l 193 -10 q 325 -142 193 -142 l 944 -142 l 944 -165 l 906 -194 l 328 -194 q 132 3 132 -194 m 500 268 q 629 139 500 139 l 910 139 l 910 625 l 629 625 q 500 496 500 625 l 500 268 z "},"\\":{"ha":503,"x_min":28,"x_max":475,"o":"m 28 1000 l 85 1021 l 475 -42 l 419 -62 l 28 1000 z "},"¡":{"ha":346,"x_min":128,"x_max":219,"o":"m 128 597 l 128 715 l 219 715 l 219 597 l 128 597 m 140 -243 l 140 433 l 207 433 l 207 -243 l 140 -243 z "},"§":{"ha":747,"x_min":119,"x_max":628,"o":"m 119 -83 l 433 -83 q 564 40 564 -83 q 508 149 564 135 l 247 214 q 119 392 119 246 l 119 604 l 160 644 q 119 771 119 688 q 313 958 119 958 l 557 958 l 596 929 l 596 903 l 314 903 q 183 779 183 903 q 239 671 183 685 l 500 606 q 628 428 628 574 l 628 215 l 588 175 q 628 49 628 132 q 435 -139 628 -139 l 158 -139 l 119 -110 l 119 -83 m 183 396 q 269 274 183 296 l 564 200 l 564 424 q 478 546 564 524 l 183 619 l 183 396 z "},"¶":{"ha":746,"x_min":104,"x_max":600,"o":"m 104 567 l 104 750 q 313 958 104 958 l 440 958 l 440 358 l 313 358 q 104 567 104 358 m 538 -236 l 538 958 l 600 958 l 600 -236 l 538 -236 z "},"·":{"ha":346,"x_min":128,"x_max":219,"o":"m 128 375 l 128 494 l 219 494 l 219 375 l 128 375 z "},"¿":{"ha":647,"x_min":69,"x_max":619,"o":"m 69 -43 l 69 88 q 269 288 69 288 l 354 288 l 354 433 l 424 433 l 424 226 l 263 226 q 136 100 136 226 l 136 -56 q 263 -182 136 -182 l 619 -182 l 619 -208 l 575 -243 l 269 -243 q 69 -43 69 -243 m 344 597 l 344 715 l 436 715 l 436 597 l 344 597 z "},"†":{"ha":674,"x_min":69,"x_max":604,"o":"m 69 603 l 69 661 l 307 661 l 307 958 l 368 958 l 368 661 l 604 661 l 604 603 l 368 603 l 368 -139 l 307 -139 l 307 603 l 69 603 z "},"‡":{"ha":674,"x_min":69,"x_max":604,"o":"m 69 158 l 69 217 l 307 217 l 307 603 l 69 603 l 69 661 l 307 661 l 307 958 l 368 958 l 368 661 l 604 661 l 604 603 l 368 603 l 368 217 l 604 217 l 604 158 l 368 158 l 368 -139 l 307 -139 l 307 158 l 69 158 z "},"•":{"ha":493,"x_min":136,"x_max":358,"o":"m 136 383 l 136 617 l 358 617 l 358 383 l 136 383 z "},"…":{"ha":1039,"x_min":128,"x_max":911,"o":"m 128 0 l 128 119 l 219 119 l 219 0 l 128 0 m 474 0 l 474 119 l 565 119 l 565 0 l 474 0 m 819 0 l 819 119 l 911 119 l 911 0 l 819 0 z "},"‰":{"ha":1649,"x_min":61,"x_max":1589,"o":"m 61 514 l 61 839 q 181 958 61 958 l 315 958 q 435 839 435 958 l 435 514 q 315 394 435 394 l 181 394 q 61 514 61 394 m 113 506 q 176 442 113 442 l 318 442 q 382 506 382 442 l 382 847 q 318 911 382 911 l 176 911 q 113 847 113 911 l 113 506 m 333 33 l 792 950 l 842 925 l 383 8 l 333 33 m 742 119 l 742 444 q 861 564 742 564 l 996 564 q 1115 444 1115 564 l 1115 119 q 996 0 1115 0 l 861 0 q 742 119 742 0 m 793 111 q 857 47 793 47 l 999 47 q 1063 111 1063 47 l 1063 453 q 999 517 1063 517 l 857 517 q 793 453 793 517 l 793 111 m 1215 119 l 1215 444 q 1335 564 1215 564 l 1469 564 q 1589 444 1589 564 l 1589 119 q 1469 0 1589 0 l 1335 0 q 1215 119 1215 0 m 1267 111 q 1331 47 1267 47 l 1472 47 q 1536 111 1536 47 l 1536 453 q 1472 517 1536 517 l 1331 517 q 1267 453 1267 517 l 1267 111 z "},"+":{"ha":803,"x_min":92,"x_max":711,"o":"m 92 436 l 92 494 l 371 494 l 371 792 l 432 792 l 432 494 l 711 494 l 711 436 l 432 436 l 432 139 l 371 139 l 371 436 l 92 436 z "},"<":{"ha":803,"x_min":89,"x_max":706,"o":"m 89 433 l 89 497 l 681 781 l 706 729 l 143 465 l 706 201 l 681 150 l 89 433 z "},"=":{"ha":803,"x_min":92,"x_max":711,"o":"m 92 283 l 92 342 l 711 342 l 711 283 l 92 283 m 92 589 l 92 647 l 711 647 l 711 589 l 92 589 z "},">":{"ha":803,"x_min":97,"x_max":714,"o":"m 97 201 l 660 465 l 97 729 l 122 781 l 714 497 l 714 433 l 122 150 l 97 201 z "},"|":{"ha":349,"x_min":144,"x_max":206,"o":"m 144 -278 l 144 1028 l 206 1028 l 206 -278 l 144 -278 z "},"~":{"ha":803,"x_min":82,"x_max":721,"o":"m 82 410 l 203 529 q 290 569 242 569 q 378 529 339 569 l 460 449 q 513 421 488 421 q 565 449 538 421 l 679 563 l 721 521 l 600 401 q 513 361 561 361 q 425 401 464 361 l 343 482 q 290 510 315 510 q 238 482 265 510 l 124 368 l 82 410 z "},"¬":{"ha":803,"x_min":92,"x_max":711,"o":"m 92 506 l 92 564 l 711 564 l 711 211 l 650 211 l 650 506 l 92 506 z "},"±":{"ha":803,"x_min":92,"x_max":711,"o":"m 92 0 l 92 57 l 711 57 l 711 0 l 92 0 m 92 447 l 92 506 l 371 506 l 371 792 l 432 792 l 432 506 l 711 506 l 711 447 l 432 447 l 432 161 l 371 161 l 371 447 l 92 447 z "},"×":{"ha":803,"x_min":131,"x_max":672,"o":"m 131 236 l 360 465 l 131 694 l 172 736 l 401 507 l 631 736 l 672 694 l 443 465 l 672 236 l 631 194 l 401 424 l 172 194 l 131 236 z "},"÷":{"ha":803,"x_min":92,"x_max":711,"o":"m 92 436 l 92 494 l 711 494 l 711 436 l 92 436 m 351 151 l 351 251 l 451 251 l 451 151 l 351 151 m 351 679 l 351 779 l 451 779 l 451 679 l 351 679 z "},"⁄":{"ha":186,"x_min":-161,"x_max":347,"o":"m -161 33 l 297 950 l 347 925 l -111 8 l -161 33 z "},"∂":{"ha":796,"x_min":107,"x_max":683,"o":"m 107 199 l 107 424 q 306 622 107 622 l 621 622 l 621 747 q 396 972 621 972 l 168 972 l 168 999 l 207 1028 l 400 1028 q 683 744 683 1028 l 683 199 q 486 0 683 0 l 306 0 q 107 199 107 0 m 169 185 q 299 56 169 56 l 492 56 q 621 185 621 56 l 621 567 l 299 567 q 169 438 169 567 l 169 185 z "},"∆":{"ha":858,"x_min":29,"x_max":829,"o":"m 29 18 l 372 958 l 488 958 l 829 18 l 818 0 l 42 0 l 29 18 m 117 61 l 743 61 l 446 897 l 414 897 l 117 61 z "},"∏":{"ha":965,"x_min":132,"x_max":833,"o":"m 132 -139 l 132 958 l 833 958 l 833 -139 l 767 -139 l 767 897 l 199 897 l 199 -139 l 132 -139 z "},"∑":{"ha":789,"x_min":69,"x_max":719,"o":"m 69 -83 l 415 410 l 69 903 l 69 958 l 719 958 l 719 897 l 150 897 l 490 410 l 150 -78 l 719 -78 l 719 -139 l 69 -139 l 69 -83 z "},"−":{"ha":803,"x_min":92,"x_max":711,"o":"m 92 436 l 92 494 l 711 494 l 711 436 l 92 436 z "},"∕":{"ha":186,"x_min":-161,"x_max":347,"o":"m -161 33 l 297 950 l 347 925 l -111 8 l -161 33 z "},"∙":{"ha":346,"x_min":128,"x_max":219,"o":"m 128 403 l 128 522 l 219 522 l 219 403 l 128 403 z "},"√":{"ha":779,"x_min":28,"x_max":779,"o":"m 28 494 l 28 556 l 206 556 l 371 64 l 726 1092 l 779 1072 l 400 -14 l 339 -14 l 164 494 l 28 494 z "},"∞":{"ha":844,"x_min":63,"x_max":782,"o":"m 63 386 l 63 544 q 183 665 63 665 l 322 665 q 422 618 375 665 q 522 665 469 665 l 661 665 q 782 544 782 665 l 782 386 q 661 265 782 265 l 522 265 q 422 313 469 265 q 322 265 375 265 l 183 265 q 63 386 63 265 m 114 374 q 175 313 114 313 l 335 313 q 396 374 396 313 l 396 557 q 335 618 396 618 l 175 618 q 114 557 114 618 l 114 374 m 449 374 q 510 313 449 313 l 668 313 q 729 374 729 313 l 729 557 q 668 618 729 618 l 510 618 q 449 557 449 618 l 449 374 z "},"∫":{"ha":535,"x_min":28,"x_max":507,"o":"m 28 -222 l 107 -222 q 236 -93 236 -222 l 236 829 q 435 1028 236 1028 l 468 1028 l 507 999 l 507 972 l 428 972 q 299 843 299 972 l 299 -79 q 100 -278 299 -278 l 67 -278 l 28 -249 l 28 -222 z "},"≈":{"ha":803,"x_min":82,"x_max":721,"o":"m 82 257 l 203 376 q 290 417 242 417 q 378 376 339 417 l 460 296 q 513 268 488 268 q 565 296 538 268 l 679 410 l 721 368 l 600 249 q 513 208 561 208 q 425 249 464 208 l 343 329 q 290 357 315 357 q 238 329 265 357 l 124 215 l 82 257 m 82 563 l 203 682 q 290 722 242 722 q 378 682 339 722 l 460 601 q 513 574 488 574 q 565 601 538 574 l 679 715 l 721 674 l 600 554 q 513 514 561 514 q 425 554 464 514 l 343 635 q 290 663 315 663 q 238 635 265 663 l 124 521 l 82 563 z "},"≠":{"ha":803,"x_min":92,"x_max":711,"o":"m 92 283 l 92 342 l 308 342 l 435 589 l 92 589 l 92 647 l 464 647 l 557 831 l 604 807 l 524 647 l 711 647 l 711 589 l 494 589 l 368 342 l 711 342 l 711 283 l 339 283 l 246 100 l 199 124 l 279 283 l 92 283 z "},"≤":{"ha":803,"x_min":89,"x_max":711,"o":"m 92 0 l 92 57 l 711 57 l 711 0 l 92 0 m 89 415 l 89 481 l 681 764 l 706 711 l 143 449 l 706 185 l 681 132 l 89 415 z "},"≥":{"ha":803,"x_min":92,"x_max":714,"o":"m 92 0 l 92 57 l 711 57 l 711 0 l 92 0 m 97 185 l 660 449 l 97 711 l 122 764 l 714 481 l 714 415 l 122 132 l 97 185 z "},"$":{"ha":803,"x_min":106,"x_max":697,"o":"m 106 35 l 106 61 l 504 61 q 631 186 631 61 l 631 288 q 538 408 631 390 l 250 467 q 106 661 106 494 l 106 717 q 306 917 106 917 l 374 917 l 374 1083 l 429 1083 l 429 917 l 625 917 l 669 882 l 669 856 l 299 856 q 172 731 172 856 l 172 649 q 265 526 172 544 l 553 469 q 697 275 697 440 l 697 200 q 497 0 697 0 l 429 0 l 429 -167 l 374 -167 l 374 0 l 150 0 l 106 35 z "},"¢":{"ha":803,"x_min":140,"x_max":658,"o":"m 140 199 l 140 517 q 339 715 140 715 l 413 715 l 413 868 l 465 868 l 465 715 l 619 715 l 658 686 l 658 660 l 332 660 q 203 531 203 660 l 203 185 q 332 56 203 56 l 658 56 l 658 29 l 619 0 l 465 0 l 465 -153 l 413 -153 l 413 0 l 339 0 q 140 199 140 0 z "},"£":{"ha":803,"x_min":97,"x_max":719,"o":"m 97 0 l 97 61 l 224 61 l 224 453 l 97 453 l 97 506 l 224 506 l 224 758 q 424 958 224 958 l 647 958 l 692 924 l 692 897 l 417 897 q 290 772 290 897 l 290 506 l 572 506 l 572 453 l 290 453 l 290 61 l 719 61 l 719 0 l 97 0 z "},"¤":{"ha":803,"x_min":93,"x_max":710,"o":"m 93 206 l 192 304 l 192 668 l 93 767 l 128 801 l 226 703 l 576 703 l 675 801 l 710 767 l 611 668 l 611 304 l 710 206 l 675 171 l 576 269 l 226 269 l 128 171 l 93 206 m 243 374 q 304 313 243 313 l 499 313 q 560 374 560 313 l 560 599 q 499 660 560 660 l 304 660 q 243 599 243 660 l 243 374 z "},"¥":{"ha":803,"x_min":60,"x_max":743,"o":"m 60 940 l 69 958 l 125 958 l 401 454 l 678 958 l 733 958 l 743 940 l 453 425 l 660 425 l 660 368 l 435 368 l 435 243 l 660 243 l 660 186 l 435 186 l 435 0 l 368 0 l 368 186 l 143 186 l 143 243 l 368 243 l 368 368 l 143 368 l 143 425 l 350 425 l 60 940 z "},"€":{"ha":803,"x_min":56,"x_max":733,"o":"m 56 360 l 56 417 l 154 417 l 154 542 l 56 542 l 56 599 l 154 599 l 154 758 q 354 958 154 958 l 689 958 l 733 924 l 733 897 l 347 897 q 221 772 221 897 l 221 599 l 631 599 l 631 542 l 221 542 l 221 417 l 569 417 l 569 360 l 221 360 l 221 186 q 347 61 221 61 l 733 61 l 733 35 l 689 0 l 354 0 q 154 200 154 0 l 154 360 l 56 360 z "},"₺":{"ha":803,"x_min":35,"x_max":718,"o":"m 35 414 l 182 474 l 182 593 l 57 542 l 35 596 l 182 656 l 182 958 l 249 958 l 249 682 l 533 797 l 556 742 l 249 619 l 249 500 l 533 615 l 556 560 l 249 438 l 249 61 l 401 61 q 656 315 656 61 l 656 417 l 718 417 l 718 321 q 397 0 718 0 l 182 0 l 182 411 l 57 360 l 35 414 z "},"₽":{"ha":803,"x_min":71,"x_max":718,"o":"m 71 292 l 71 343 l 140 343 l 140 451 l 71 451 l 71 507 l 140 507 l 140 958 l 518 958 q 718 758 718 958 l 718 651 q 518 451 718 451 l 207 451 l 207 343 l 543 343 l 543 292 l 207 292 l 207 0 l 140 0 l 140 292 l 71 292 m 207 507 l 525 507 q 651 633 651 507 l 651 772 q 525 897 651 897 l 207 897 l 207 507 z "},"^":{"ha":731,"x_min":63,"x_max":668,"o":"m 63 469 l 333 958 l 397 958 l 668 469 l 615 440 l 365 897 l 115 440 l 63 469 z "},"`":{"ha":694,"x_min":197,"x_max":415,"o":"m 197 974 l 243 1019 l 415 829 l 376 792 l 197 974 z "},"¨":{"ha":694,"x_min":193,"x_max":501,"o":"m 193 861 l 193 953 l 269 953 l 269 861 l 193 861 m 425 861 l 425 953 l 501 953 l 501 861 l 425 861 z "},"¯":{"ha":694,"x_min":181,"x_max":515,"o":"m 181 874 l 181 936 l 515 936 l 515 874 l 181 874 z "},"´":{"ha":694,"x_min":281,"x_max":499,"o":"m 281 829 l 453 1019 l 499 974 l 318 793 l 281 829 z "},"¸":{"ha":694,"x_min":197,"x_max":449,"o":"m 197 -196 l 331 -196 q 394 -132 394 -196 l 394 28 l 449 28 l 449 -125 q 329 -244 449 -244 l 229 -244 l 197 -221 l 197 -196 z "},"˘":{"ha":694,"x_min":185,"x_max":511,"o":"m 185 921 l 185 996 l 239 996 l 239 919 q 272 886 239 886 l 424 886 q 457 919 457 886 l 457 996 l 511 996 l 511 921 q 421 832 511 832 l 274 832 q 185 921 185 832 z "},"˙":{"ha":694,"x_min":310,"x_max":386,"o":"m 310 858 l 310 954 l 386 954 l 386 858 l 310 858 z "},"˚":{"ha":694,"x_min":218,"x_max":478,"o":"m 218 885 l 218 964 q 306 1051 218 1051 l 390 1051 q 478 964 478 1051 l 478 885 q 390 797 478 797 l 306 797 q 218 885 218 797 m 268 881 q 306 843 268 843 l 389 843 q 428 881 428 843 l 428 968 q 389 1006 428 1006 l 306 1006 q 268 968 268 1006 l 268 881 z "},"˛":{"ha":694,"x_min":264,"x_max":510,"o":"m 264 -71 q 383 49 264 49 l 421 49 l 421 0 l 378 0 q 317 -61 317 0 l 317 -135 q 378 -196 317 -196 l 510 -196 l 510 -221 l 478 -244 l 383 -244 q 264 -125 264 -244 l 264 -71 z "},"˜":{"ha":694,"x_min":151,"x_max":544,"o":"m 151 875 l 214 938 q 283 969 247 969 q 350 938 319 969 l 383 904 q 414 888 400 888 q 444 904 428 888 l 507 967 l 544 929 l 482 867 q 414 835 450 835 q 346 867 378 835 l 313 900 q 283 917 297 917 q 251 900 269 917 l 189 838 l 151 875 z "},"˝":{"ha":694,"x_min":200,"x_max":617,"o":"m 200 828 l 353 1021 l 404 975 l 239 792 l 200 828 m 413 828 l 565 1021 l 617 975 l 451 792 l 413 828 z "},"¦":{"ha":349,"x_min":144,"x_max":206,"o":"m 144 231 l 206 231 l 206 -278 l 144 -278 l 144 231 m 144 519 l 144 1028 l 206 1028 l 206 519 l 144 519 z "},"©":{"ha":1164,"x_min":118,"x_max":1046,"o":"m 118 118 l 118 840 q 236 958 118 958 l 928 958 q 1046 840 1046 958 l 1046 118 q 928 0 1046 0 l 236 0 q 118 118 118 0 m 167 110 q 232 43 167 43 l 931 43 q 997 110 997 43 l 997 849 q 931 915 997 915 l 232 915 q 167 849 167 915 l 167 110 m 364 321 l 364 638 q 483 757 364 757 l 726 757 l 758 732 l 758 710 l 479 710 q 415 646 415 710 l 415 313 q 479 249 415 249 l 758 249 l 758 226 l 726 201 l 483 201 q 364 321 364 201 z "},"®":{"ha":1164,"x_min":118,"x_max":1046,"o":"m 118 118 l 118 840 q 236 958 118 958 l 928 958 q 1046 840 1046 958 l 1046 118 q 928 0 1046 0 l 236 0 q 118 118 118 0 m 167 110 q 232 43 167 43 l 931 43 q 997 110 997 43 l 997 849 q 931 915 997 915 l 232 915 q 167 849 167 915 l 167 110 m 393 201 l 393 757 l 663 757 q 782 638 782 757 l 782 550 q 690 432 782 444 l 800 215 l 793 201 l 750 201 l 632 431 l 446 431 l 446 201 l 393 201 m 446 478 l 665 478 q 729 542 729 478 l 729 646 q 665 710 729 710 l 446 710 l 446 478 z "},"°":{"ha":568,"x_min":90,"x_max":478,"o":"m 90 633 l 90 839 q 210 958 90 958 l 358 958 q 478 839 478 958 l 478 633 q 358 514 478 514 l 210 514 q 90 633 90 514 m 139 626 q 208 557 139 557 l 360 557 q 429 626 429 557 l 429 846 q 360 915 429 915 l 208 915 q 139 846 139 915 l 139 626 z "},"™":{"ha":1076,"x_min":28,"x_max":986,"o":"m 28 915 l 28 958 l 415 958 l 415 915 l 246 915 l 246 478 l 197 478 l 197 915 l 28 915 m 500 478 l 500 958 l 569 958 l 743 589 l 917 958 l 986 958 l 986 478 l 938 478 l 938 897 l 771 540 l 715 540 l 549 897 l 549 478 l 500 478 z "},"℮":{"ha":1222,"x_min":83,"x_max":1139,"o":"m 278 176 q 611 35 424 35 q 954 185 799 35 l 999 139 q 611 -21 829 -21 q 238 126 393 -21 q 83 479 83 272 q 238 833 83 686 q 611 979 393 979 q 984 833 829 979 q 1139 451 1139 686 l 278 451 l 278 176 m 278 507 l 944 507 l 944 782 q 611 924 799 924 q 278 782 424 924 l 278 507 z "},"◊":{"ha":803,"x_min":96,"x_max":707,"o":"m 96 479 l 371 958 l 432 958 l 707 479 l 432 0 l 371 0 l 96 479 m 157 479 l 401 53 l 646 479 l 401 906 l 157 479 z "}," ":{"ha":333,"x_min":0,"x_max":0,"o":""}," ":{"ha":333,"x_min":0,"x_max":0,"o":""},"\u0000":{"ha":0,"x_min":0,"x_max":0,"o":""},"\r":{"ha":333,"x_min":0,"x_max":0,"o":""},"­":{"ha":483,"x_min":56,"x_max":428,"o":"m 56 394 l 56 453 l 428 453 l 428 394 l 56 394 z "},"":{"ha":972,"x_min":69,"x_max":903,"o":"m 69 840 l 903 840 l 486 118 l 69 840 z "}}}
